<svg width="1432" height="531" viewBox="0 0 1432 531" fill="none" xmlns="http://www.w3.org/2000/svg">
    <defs>
        <linearGradient id="paint0_linear_653_2999" x1="265.954" y1="22.4804" x2="995.954" y2="382.48" gradientUnits="userSpaceOnUse">
            <stop/>
            <stop offset="1" stop-color="#E5B80B"/>
        </linearGradient>
    </defs>
    <path d="M1032.57 159.725L1032.57 159.725C1043.25 134.408 1058.63 112.065 1078.29 93.2924C1116.61 56.7048 1167.74 36.5508 1223.19 36.5508C1278.65 36.5508 1330.29 56.6261 1368.61 93.073C1388.22 111.729 1403.57 133.956 1414.25 159.165L1414.24 159.175L1414.37 159.485C1425.69 186.318 1431.42 215.942 1431.42 247.541C1431.42 279.14 1425.69 308.733 1414.37 335.506C1403.7 360.773 1388.3 383.046 1368.6 401.708C1330.33 437.965 1278.58 457.941 1223.19 457.941C1167.81 457.941 1116.27 437.885 1078.07 401.489C1058.46 382.807 1043.13 360.524 1032.49 335.257C1021.24 308.513 1015.53 278.98 1015.53 247.531C1015.53 216.082 1021.26 186.539 1032.57 159.725ZM1223.2 381.501C1255.96 381.501 1286.46 370.044 1309.22 349.204V349.222L1310.07 348.436C1336.12 324.114 1349.85 289.012 1349.85 246.961C1349.85 204.91 1336.11 169.807 1310.06 145.485L1309.71 145.851L1310.06 145.485C1287.2 124.153 1256.3 112.411 1223.2 112.411C1190.11 112.411 1159.37 124.153 1136.65 145.486C1110.78 169.779 1097.13 204.891 1097.13 246.961C1097.13 293.133 1113.46 326.78 1137.4 348.882C1161.34 370.976 1192.85 381.501 1223.2 381.501Z" fill="black" stroke="black"/>
<mask id="path-2-inside-1_653_2999" fill="white">
<path d="M297.534 202.481C285.654 217.471 274.904 237.291 265.584 261.411C258.664 279.021 253.914 295.121 251.474 309.361V309.981C250.004 319.491 249.634 329.121 250.374 338.601C251.104 348.061 253.744 357.001 258.204 365.181C263.144 374.201 270.824 381.941 281.014 388.191C291.214 394.391 305.624 398.491 323.844 400.361C327.554 400.831 331.104 401.071 334.474 401.071C337.844 401.071 340.994 400.841 343.944 400.371C363.734 399.391 381.174 393.481 395.774 382.811C410.224 372.221 422.604 361.291 432.564 350.301C434.534 347.921 436.114 345.941 437.414 344.221C438.644 342.541 439.744 341.031 440.764 339.601C448.294 329.451 452.924 322.191 454.854 317.491C459.704 310.041 463.834 302.951 467.114 296.421L467.734 295.191C468.134 294.391 468.534 293.601 468.914 292.821C472.134 286.421 475.664 280.011 479.424 273.741L479.784 273.101C482.934 267.851 486.274 261.881 489.984 254.881C490.104 256.651 490.234 258.391 490.354 260.091V260.791C490.394 261.261 490.444 261.681 490.524 262.141H490.544C491.474 271.091 492.534 280.001 493.714 288.621C494.414 293.861 494.994 298.661 495.514 303.291C496.164 309.231 496.644 313.931 497.064 318.541C497.554 323.771 498.044 329.091 498.534 334.571C499.024 339.971 498.904 344.711 498.174 348.671C498.054 349.331 497.984 349.811 497.924 350.241C497.804 351.031 497.714 351.651 497.404 352.961C496.214 357.481 492.244 361.461 487.974 362.411C485.384 362.991 481.504 362.731 477.724 358.201C475.914 356.051 474.994 353.531 475.144 351.111C475.374 347.431 477.554 344.051 480.854 342.281L480.964 342.221L481.194 341.881V341.741C481.424 337.321 479.874 333.131 476.854 329.951C473.804 326.751 469.684 324.981 465.244 324.981C460.804 324.981 456.794 326.751 453.734 329.941C452.694 330.891 451.834 331.861 451.164 332.851C449.714 334.941 448.444 337.241 447.384 339.721L446.274 342.931C445.204 346.571 443.104 364.431 453.284 379.031C461.774 391.221 476.394 398.111 496.764 399.511C496.944 399.511 497.124 399.531 497.294 399.551C497.514 399.571 497.734 399.591 497.954 399.591H497.964C507.314 400.111 516.054 399.181 523.954 396.831C558.514 386.681 571.974 352.171 573.004 325.711C573.214 320.851 573.004 316.191 572.384 311.911C571.324 298.501 568.844 282.611 565.014 264.691C550.054 194.731 569.054 168.181 584.334 146.851C587.784 142.021 591.054 137.471 593.614 132.781L593.674 132.631C597.024 126.411 597.624 119.431 595.414 112.461C592.654 102.201 584.094 93.8609 573.634 91.2209C562.604 87.8209 550.864 90.4709 540.584 98.6609C540.474 98.7209 540.404 98.8109 540.404 98.8309C509.414 123.711 492.814 184.521 492.644 185.141C492.074 187.301 491.074 190.131 489.594 193.791C488.764 195.851 487.774 198.101 486.374 201.081C483.324 207.611 479.924 215.181 475.974 224.241C472.384 232.471 468.404 241.091 464.114 249.861C460.424 257.351 457.054 264.481 454.084 271.051C453.874 271.481 453.724 271.771 453.574 272.071C453.334 272.541 453.084 273.021 452.594 274.071C452.294 274.861 451.984 275.461 451.674 276.041C451.474 276.411 451.284 276.781 451.104 277.171C448.684 282.001 445.674 287.481 442.154 293.461C437.774 300.931 432.794 308.351 427.424 315.441C426.914 315.951 425.254 318.001 422.234 321.851C421.324 322.721 420.444 323.701 419.604 324.771C418.914 325.691 418.084 326.611 417.054 327.591C413.074 331.901 408.474 336.311 403.384 340.721C398.204 345.201 392.244 349.261 385.674 352.761C379.014 356.311 371.694 359.051 363.904 360.891C361.404 361.501 358.714 361.961 355.704 362.311C347.854 363.191 339.464 362.461 330.764 360.161L330.624 360.121L330.524 360.151C321.284 356.821 315.854 351.581 313.944 344.151C312.014 336.661 311.504 328.941 312.434 321.191C336.454 316.891 355.984 309.821 370.484 300.161C385.014 290.451 396.414 279.981 404.374 269.041C412.254 258.141 417.774 247.181 420.774 236.451C423.734 225.861 425.494 217.071 425.984 210.371C426.484 206.501 426.604 203.201 426.354 200.281C426.114 197.441 425.744 194.861 425.244 192.401C424.264 185.301 421.874 178.401 418.144 171.891C414.384 165.401 408.184 160.421 399.714 157.071C390.744 153.721 380.314 152.751 368.704 154.181C357.034 155.621 345.104 160.321 333.254 168.161C321.354 176.031 309.334 187.571 297.544 202.451L297.534 202.481ZM366.154 212.451C371.334 207.481 375.994 204.091 380.014 202.371C384.054 200.661 387.274 199.831 389.864 199.831C390.954 199.831 392.864 200.671 395.694 202.401C398.604 204.211 399.514 209.381 398.504 218.221C398.004 223.031 396.124 229.191 392.904 236.521C389.684 243.861 384.794 251.451 378.384 259.091C371.944 266.721 363.924 273.701 354.544 279.841C345.074 286.051 333.524 290.151 320.214 292.021L319.404 292.131L319.664 291.361C320.384 289.261 321.154 287.221 322.004 285.171L322.074 285.001C322.124 284.871 322.184 284.741 322.234 284.611L322.984 282.821C324.244 279.891 325.874 276.521 327.834 272.811C335.254 256.631 342.254 243.661 348.654 234.281C355.124 224.731 361.004 217.381 366.154 212.451Z"/>
</mask>
<path d="M297.534 202.481C285.654 217.471 274.904 237.291 265.584 261.411C258.664 279.021 253.914 295.121 251.474 309.361V309.981C250.004 319.491 249.634 329.121 250.374 338.601C251.104 348.061 253.744 357.001 258.204 365.181C263.144 374.201 270.824 381.941 281.014 388.191C291.214 394.391 305.624 398.491 323.844 400.361C327.554 400.831 331.104 401.071 334.474 401.071C337.844 401.071 340.994 400.841 343.944 400.371C363.734 399.391 381.174 393.481 395.774 382.811C410.224 372.221 422.604 361.291 432.564 350.301C434.534 347.921 436.114 345.941 437.414 344.221C438.644 342.541 439.744 341.031 440.764 339.601C448.294 329.451 452.924 322.191 454.854 317.491C459.704 310.041 463.834 302.951 467.114 296.421L467.734 295.191C468.134 294.391 468.534 293.601 468.914 292.821C472.134 286.421 475.664 280.011 479.424 273.741L479.784 273.101C482.934 267.851 486.274 261.881 489.984 254.881C490.104 256.651 490.234 258.391 490.354 260.091V260.791C490.394 261.261 490.444 261.681 490.524 262.141H490.544C491.474 271.091 492.534 280.001 493.714 288.621C494.414 293.861 494.994 298.661 495.514 303.291C496.164 309.231 496.644 313.931 497.064 318.541C497.554 323.771 498.044 329.091 498.534 334.571C499.024 339.971 498.904 344.711 498.174 348.671C498.054 349.331 497.984 349.811 497.924 350.241C497.804 351.031 497.714 351.651 497.404 352.961C496.214 357.481 492.244 361.461 487.974 362.411C485.384 362.991 481.504 362.731 477.724 358.201C475.914 356.051 474.994 353.531 475.144 351.111C475.374 347.431 477.554 344.051 480.854 342.281L480.964 342.221L481.194 341.881V341.741C481.424 337.321 479.874 333.131 476.854 329.951C473.804 326.751 469.684 324.981 465.244 324.981C460.804 324.981 456.794 326.751 453.734 329.941C452.694 330.891 451.834 331.861 451.164 332.851C449.714 334.941 448.444 337.241 447.384 339.721L446.274 342.931C445.204 346.571 443.104 364.431 453.284 379.031C461.774 391.221 476.394 398.111 496.764 399.511C496.944 399.511 497.124 399.531 497.294 399.551C497.514 399.571 497.734 399.591 497.954 399.591H497.964C507.314 400.111 516.054 399.181 523.954 396.831C558.514 386.681 571.974 352.171 573.004 325.711C573.214 320.851 573.004 316.191 572.384 311.911C571.324 298.501 568.844 282.611 565.014 264.691C550.054 194.731 569.054 168.181 584.334 146.851C587.784 142.021 591.054 137.471 593.614 132.781L593.674 132.631C597.024 126.411 597.624 119.431 595.414 112.461C592.654 102.201 584.094 93.8609 573.634 91.2209C562.604 87.8209 550.864 90.4709 540.584 98.6609C540.474 98.7209 540.404 98.8109 540.404 98.8309C509.414 123.711 492.814 184.521 492.644 185.141C492.074 187.301 491.074 190.131 489.594 193.791C488.764 195.851 487.774 198.101 486.374 201.081C483.324 207.611 479.924 215.181 475.974 224.241C472.384 232.471 468.404 241.091 464.114 249.861C460.424 257.351 457.054 264.481 454.084 271.051C453.874 271.481 453.724 271.771 453.574 272.071C453.334 272.541 453.084 273.021 452.594 274.071C452.294 274.861 451.984 275.461 451.674 276.041C451.474 276.411 451.284 276.781 451.104 277.171C448.684 282.001 445.674 287.481 442.154 293.461C437.774 300.931 432.794 308.351 427.424 315.441C426.914 315.951 425.254 318.001 422.234 321.851C421.324 322.721 420.444 323.701 419.604 324.771C418.914 325.691 418.084 326.611 417.054 327.591C413.074 331.901 408.474 336.311 403.384 340.721C398.204 345.201 392.244 349.261 385.674 352.761C379.014 356.311 371.694 359.051 363.904 360.891C361.404 361.501 358.714 361.961 355.704 362.311C347.854 363.191 339.464 362.461 330.764 360.161L330.624 360.121L330.524 360.151C321.284 356.821 315.854 351.581 313.944 344.151C312.014 336.661 311.504 328.941 312.434 321.191C336.454 316.891 355.984 309.821 370.484 300.161C385.014 290.451 396.414 279.981 404.374 269.041C412.254 258.141 417.774 247.181 420.774 236.451C423.734 225.861 425.494 217.071 425.984 210.371C426.484 206.501 426.604 203.201 426.354 200.281C426.114 197.441 425.744 194.861 425.244 192.401C424.264 185.301 421.874 178.401 418.144 171.891C414.384 165.401 408.184 160.421 399.714 157.071C390.744 153.721 380.314 152.751 368.704 154.181C357.034 155.621 345.104 160.321 333.254 168.161C321.354 176.031 309.334 187.571 297.544 202.451L297.534 202.481ZM366.154 212.451C371.334 207.481 375.994 204.091 380.014 202.371C384.054 200.661 387.274 199.831 389.864 199.831C390.954 199.831 392.864 200.671 395.694 202.401C398.604 204.211 399.514 209.381 398.504 218.221C398.004 223.031 396.124 229.191 392.904 236.521C389.684 243.861 384.794 251.451 378.384 259.091C371.944 266.721 363.924 273.701 354.544 279.841C345.074 286.051 333.524 290.151 320.214 292.021L319.404 292.131L319.664 291.361C320.384 289.261 321.154 287.221 322.004 285.171L322.074 285.001C322.124 284.871 322.184 284.741 322.234 284.611L322.984 282.821C324.244 279.891 325.874 276.521 327.834 272.811C335.254 256.631 342.254 243.661 348.654 234.281C355.124 224.731 361.004 217.381 366.154 212.451Z" fill="black" stroke="black" stroke-width="2" mask="url(#path-2-inside-1_653_2999)"/>
<mask id="path-3-inside-2_653_2999" fill="white">
<path d="M786.074 319.31H899.624C898.464 322.5 892.814 337 879.744 355.85C866.114 375.5 841.414 404.04 801.094 428.39C786.354 437.3 770.224 445.21 753.134 451.91C667.784 485.28 558.334 488.71 427.834 462.11C352.974 446.84 270.234 421.28 181.904 386.15C181.454 385.98 181.014 385.83 180.564 385.68C180.124 385.53 179.684 385.38 179.254 385.22C176.884 384.28 174.334 383.23 171.614 382.12L171.244 381.97C172.984 352.15 174.754 329.81 176.664 313.69C179.164 292.63 179.924 288.31 180.164 287.62L180.184 287.52C183.164 262.58 189.624 237.76 199.384 213.75L199.424 213.56C199.424 213.5 199.424 213.47 199.424 213.47C199.444 213.47 199.484 213.45 199.574 213.45H199.694L199.804 213.39C204.534 210.92 208.944 208.5 213.284 205.98C218.134 203.18 222.544 200.56 226.734 197.97C241.344 190.11 254.084 182.23 264.524 174.59C265.384 174.18 266.164 173.64 266.904 172.95C267.634 172.27 268.584 171.56 269.774 170.81C274.374 167.21 281.514 160.75 291.584 151.07C301.384 141.64 311.324 129.4 321.114 114.67C325.804 107.69 330.134 100.01 333.964 91.82C337.794 83.63 341.164 74.96 344.254 65.3C349.384 48.87 351.434 36.17 350.374 27.55C349.314 18.92 347.014 12.4 343.534 8.17C339.234 3.62 333.534 0.88 326.514 0C312.774 0 298.464 4.16 283.994 12.38C268.194 21.42 253.064 33.99 239.024 49.74C224.764 65.77 212.144 81.84 201.504 97.52C190.794 113.25 181.724 127.66 174.554 140.34L162.074 163.45L158.334 170.64C148.684 172.64 139.524 174.07 131.084 174.88C122.534 175.7 115.214 176.32 109.334 176.72C102.124 177.12 95.4639 177.13 89.5539 176.72H89.5039H89.4539C83.8739 177.54 78.7139 179.96 74.1439 183.91C69.6339 187.84 65.8239 192.44 62.8239 197.57C59.7639 202.85 57.3739 208.49 55.7339 214.33C54.0139 220.32 53.1339 225.65 53.1339 230.17C53.1339 232.76 53.9339 235.04 55.4939 236.94C57.0339 238.86 59.1639 240.27 61.8339 241.11C64.6439 242 67.3839 242.71 70.2339 243.29C73.3039 243.92 75.9239 244.24 78.0239 244.24C94.8539 244.24 112.694 242.02 131.044 237.66C127.774 246.71 124.864 255.53 122.394 263.89C119.794 272.69 117.844 281.2 116.614 289.18C115.214 297.37 114.164 304.63 113.424 311.36C112.584 317.78 111.854 325.15 111.174 333.88C110.554 341.81 110.244 349.95 110.234 358.72C106.494 357.14 102.724 355.69 99.0339 354.38C95.1139 352.99 90.8239 351.29 85.9139 349.15C68.4239 342.17 51.9539 339.67 37.0039 341.71C30.1039 342.12 23.9939 344.22 18.8239 347.93C14.0839 351.23 9.83391 356.04 6.20391 362.24C2.51391 368.5 0.493913 377.43 0.0339133 389.55C-0.416087 401.95 3.61391 412.94 12.0239 422.21C20.3939 431.47 31.1239 438.86 43.9139 444.17C56.7939 449.51 70.9539 452.84 86.0039 454.06C101.154 455.29 115.754 454.05 129.434 450.36C140.474 447.1 149.964 440.11 157.654 429.56C163.234 431.99 230.364 460.9 323.474 487C427.554 516.18 523.044 530.93 607.784 530.93C615.884 530.93 623.904 530.79 631.814 530.52C756.404 526.26 851.924 487.99 915.704 416.76C918.884 413.22 922.104 409.45 925.514 405.28V458.31H996.114L996.194 249.24V248.74H786.104V319.3L786.074 319.31ZM312.734 37.32C315.814 36.53 318.314 36.71 320.374 37.88C323.574 39.8 324.454 43.87 323.014 49.97C321.524 56.25 317.994 64.18 312.494 73.59C310.394 78.07 307.794 81.96 304.554 85.49C301.264 89.08 298.344 92.5 295.924 95.63L292.664 99.13C290.634 101.31 288.844 103.23 287.304 104.86C284.924 107.32 283.294 109.21 282.524 110.38C268.984 124.19 252.874 135.76 234.624 144.75L232.144 145.93C244.254 123.21 256.604 103.29 268.874 86.69L269.374 85.91C281.994 68.91 292.384 55.98 301.134 46.4C305.854 41.07 309.654 38.09 312.754 37.31L312.734 37.32ZM66.5639 423C61.3039 422.6 56.7139 421.58 52.9339 419.97C48.2939 417.96 45.0239 415.2 42.9339 411.55C40.8639 407.98 40.0239 404.35 40.4239 400.77C40.8139 397.23 42.4839 394.13 45.3739 391.56C48.2639 388.99 52.4639 387.68 57.8539 387.68C62.5039 387.68 69.3339 389.54 78.1639 393.2C86.8339 396.76 96.7339 401.31 108.404 407.09C106.054 410.64 102.784 413.56 98.6739 415.79L97.7339 416.26C92.9239 418.66 87.7839 420.52 82.4639 421.78C77.1139 423 71.9139 423.4 66.5739 423H66.5639Z"/>
</mask>
<path d="M786.074 319.31H899.624C898.464 322.5 892.814 337 879.744 355.85C866.114 375.5 841.414 404.04 801.094 428.39C786.354 437.3 770.224 445.21 753.134 451.91C667.784 485.28 558.334 488.71 427.834 462.11C352.974 446.84 270.234 421.28 181.904 386.15C181.454 385.98 181.014 385.83 180.564 385.68C180.124 385.53 179.684 385.38 179.254 385.22C176.884 384.28 174.334 383.23 171.614 382.12L171.244 381.97C172.984 352.15 174.754 329.81 176.664 313.69C179.164 292.63 179.924 288.31 180.164 287.62L180.184 287.52C183.164 262.58 189.624 237.76 199.384 213.75L199.424 213.56C199.424 213.5 199.424 213.47 199.424 213.47C199.444 213.47 199.484 213.45 199.574 213.45H199.694L199.804 213.39C204.534 210.92 208.944 208.5 213.284 205.98C218.134 203.18 222.544 200.56 226.734 197.97C241.344 190.11 254.084 182.23 264.524 174.59C265.384 174.18 266.164 173.64 266.904 172.95C267.634 172.27 268.584 171.56 269.774 170.81C274.374 167.21 281.514 160.75 291.584 151.07C301.384 141.64 311.324 129.4 321.114 114.67C325.804 107.69 330.134 100.01 333.964 91.82C337.794 83.63 341.164 74.96 344.254 65.3C349.384 48.87 351.434 36.17 350.374 27.55C349.314 18.92 347.014 12.4 343.534 8.17C339.234 3.62 333.534 0.88 326.514 0C312.774 0 298.464 4.16 283.994 12.38C268.194 21.42 253.064 33.99 239.024 49.74C224.764 65.77 212.144 81.84 201.504 97.52C190.794 113.25 181.724 127.66 174.554 140.34L162.074 163.45L158.334 170.64C148.684 172.64 139.524 174.07 131.084 174.88C122.534 175.7 115.214 176.32 109.334 176.72C102.124 177.12 95.4639 177.13 89.5539 176.72H89.5039H89.4539C83.8739 177.54 78.7139 179.96 74.1439 183.91C69.6339 187.84 65.8239 192.44 62.8239 197.57C59.7639 202.85 57.3739 208.49 55.7339 214.33C54.0139 220.32 53.1339 225.65 53.1339 230.17C53.1339 232.76 53.9339 235.04 55.4939 236.94C57.0339 238.86 59.1639 240.27 61.8339 241.11C64.6439 242 67.3839 242.71 70.2339 243.29C73.3039 243.92 75.9239 244.24 78.0239 244.24C94.8539 244.24 112.694 242.02 131.044 237.66C127.774 246.71 124.864 255.53 122.394 263.89C119.794 272.69 117.844 281.2 116.614 289.18C115.214 297.37 114.164 304.63 113.424 311.36C112.584 317.78 111.854 325.15 111.174 333.88C110.554 341.81 110.244 349.95 110.234 358.72C106.494 357.14 102.724 355.69 99.0339 354.38C95.1139 352.99 90.8239 351.29 85.9139 349.15C68.4239 342.17 51.9539 339.67 37.0039 341.71C30.1039 342.12 23.9939 344.22 18.8239 347.93C14.0839 351.23 9.83391 356.04 6.20391 362.24C2.51391 368.5 0.493913 377.43 0.0339133 389.55C-0.416087 401.95 3.61391 412.94 12.0239 422.21C20.3939 431.47 31.1239 438.86 43.9139 444.17C56.7939 449.51 70.9539 452.84 86.0039 454.06C101.154 455.29 115.754 454.05 129.434 450.36C140.474 447.1 149.964 440.11 157.654 429.56C163.234 431.99 230.364 460.9 323.474 487C427.554 516.18 523.044 530.93 607.784 530.93C615.884 530.93 623.904 530.79 631.814 530.52C756.404 526.26 851.924 487.99 915.704 416.76C918.884 413.22 922.104 409.45 925.514 405.28V458.31H996.114L996.194 249.24V248.74H786.104V319.3L786.074 319.31ZM312.734 37.32C315.814 36.53 318.314 36.71 320.374 37.88C323.574 39.8 324.454 43.87 323.014 49.97C321.524 56.25 317.994 64.18 312.494 73.59C310.394 78.07 307.794 81.96 304.554 85.49C301.264 89.08 298.344 92.5 295.924 95.63L292.664 99.13C290.634 101.31 288.844 103.23 287.304 104.86C284.924 107.32 283.294 109.21 282.524 110.38C268.984 124.19 252.874 135.76 234.624 144.75L232.144 145.93C244.254 123.21 256.604 103.29 268.874 86.69L269.374 85.91C281.994 68.91 292.384 55.98 301.134 46.4C305.854 41.07 309.654 38.09 312.754 37.31L312.734 37.32ZM66.5639 423C61.3039 422.6 56.7139 421.58 52.9339 419.97C48.2939 417.96 45.0239 415.2 42.9339 411.55C40.8639 407.98 40.0239 404.35 40.4239 400.77C40.8139 397.23 42.4839 394.13 45.3739 391.56C48.2639 388.99 52.4639 387.68 57.8539 387.68C62.5039 387.68 69.3339 389.54 78.1639 393.2C86.8339 396.76 96.7339 401.31 108.404 407.09C106.054 410.64 102.784 413.56 98.6739 415.79L97.7339 416.26C92.9239 418.66 87.7839 420.52 82.4639 421.78C77.1139 423 71.9139 423.4 66.5739 423H66.5639Z" fill="url(#paint0_linear_653_2999)" stroke="black" stroke-width="2" mask="url(#path-3-inside-2_653_2999)"/>
<path d="M807.682 36C712.151 36 625.729 97.0102 604.842 199.022C602.011 212.716 600.41 227.149 600.123 242.278C600.123 244.042 600 245.764 600 247.527C600 272.825 603.529 296.154 609.89 317.434V317.434C625.928 370.696 670.681 415.246 725.917 421.807C731.938 422.522 738.066 422.89 744.282 422.89C786.056 422.89 823.85 406.366 851.796 379.592C839.362 383.816 824.999 386.44 808.216 386.44C740.137 386.44 680.061 339.001 680.061 247.527C680.061 195.291 699.758 159.209 727.539 137.11C731.766 133.748 736.116 130.59 740.671 127.884C750.519 122.021 761.066 117.634 771.899 114.641C783.676 111.402 795.741 109.762 807.641 109.762C873.422 109.762 907.194 151.501 917.494 187.5L993 160.645C973.057 98.3223 914.088 36 807.682 36Z" fill="black"/>

</svg>
