<svg width="75" height="75" viewBox="0 0 75 75" fill="none" xmlns="http://www.w3.org/2000/svg">
<path d="M13.3652 47.7988H62.5253V54.8217C62.5253 55.4426 62.2786 56.038 61.8396 56.477C61.4006 56.916 60.8052 57.1626 60.1843 57.1626H15.7062C15.0853 57.1626 14.4899 56.916 14.0509 56.477C13.6119 56.038 13.3652 55.4426 13.3652 54.8217V47.7988Z" fill="#FF9F00"/>
<path d="M16.7578 24.764L21.3578 14.7564C21.4663 14.5219 21.6316 14.3182 21.8387 14.1637C22.0458 14.0092 22.2882 13.9088 22.5439 13.8716C22.7995 13.8345 23.0605 13.8616 23.303 13.9507C23.5456 14.0398 23.762 14.188 23.9328 14.3819L30.9089 22.388L29.4224 28.2403C29.1621 29.2653 28.6034 30.1899 27.8171 30.897C27.0308 31.6042 26.0523 32.0619 25.0055 32.2124C23.9588 32.3628 22.891 32.1991 21.9374 31.742C20.9837 31.285 20.1873 30.5551 19.6489 29.6449L16.7578 24.764Z" fill="#FF9F00"/>
<path d="M59.1296 24.764L54.5296 14.7564C54.4211 14.5219 54.2558 14.3182 54.0487 14.1637C53.8416 14.0092 53.5992 13.9088 53.3435 13.8716C53.0879 13.8345 52.8269 13.8616 52.5844 13.9507C52.3418 14.0398 52.1254 14.188 51.9546 14.3819L44.9785 22.388L46.465 28.2403C46.7253 29.2653 47.284 30.1899 48.0703 30.897C48.8566 31.6042 49.8351 32.0619 50.8819 32.2124C51.9286 32.3628 52.9964 32.1991 53.9501 31.742C54.9037 31.285 55.7001 30.5551 56.2385 29.6449L59.1296 24.764Z" fill="#FF9F00"/>
<path d="M36.037 14.4629L27.1999 28.1224C26.9318 28.5388 26.5791 28.8943 26.1648 29.1657C25.7505 29.4371 25.2838 29.6184 24.7949 29.6979C24.306 29.7773 23.8059 29.7531 23.3269 29.6269C22.848 29.5007 22.4009 29.2752 22.0147 28.9651L10.2514 19.5545L8.15625 20.8186L13.3649 48.9686H62.5249L67.7335 20.8186L65.6384 19.5545L53.8751 28.9651C53.4889 29.2752 53.0418 29.5007 52.5629 29.6269C52.0839 29.7531 51.5838 29.7773 51.0949 29.6979C50.606 29.6184 50.1393 29.4371 49.725 29.1657C49.3107 28.8943 48.958 28.5388 48.6899 28.1224L39.8528 14.4629H36.037Z" fill="#FED110"/>
<mask id="mask0_1085_5167" style="mask-type:alpha" maskUnits="userSpaceOnUse" x="8" y="14" width="60" height="35">
<path d="M36.037 14.4629L27.1999 28.1224C26.9318 28.5388 26.5791 28.8943 26.1648 29.1657C25.7505 29.4371 25.2838 29.6184 24.7949 29.6979C24.306 29.7773 23.8059 29.7531 23.3269 29.6269C22.848 29.5007 22.4009 29.2752 22.0147 28.9651L10.2514 19.5545L8.15625 20.8186L13.3649 48.9686H62.5249L67.7335 20.8186L65.6384 19.5545L53.8751 28.9651C53.4889 29.2752 53.0418 29.5007 52.5629 29.6269C52.0839 29.7531 51.5838 29.7773 51.0949 29.6979C50.606 29.6184 50.1393 29.4371 49.725 29.1657C49.3107 28.8943 48.958 28.5388 48.6899 28.1224L39.8528 14.4629H36.037Z" fill="#FED110"/>
</mask>
<g mask="url(#mask0_1085_5167)">
<path d="M12 42.4961H63.8438L63.3438 46H12.5L12 42.4961Z" fill="#FF9F00"/>
</g>
<path d="M37.945 15.0229C39.8843 15.0229 41.4565 13.4507 41.4565 11.5114C41.4565 9.57212 39.8843 8 37.945 8C36.0057 8 34.4336 9.57212 34.4336 11.5114C34.4336 13.4507 36.0057 15.0229 37.945 15.0229Z" fill="#FF9F00"/>
<path d="M7.51143 20.8783C9.45074 20.8783 11.0229 19.3062 11.0229 17.3669C11.0229 15.4276 9.45074 13.8555 7.51143 13.8555C5.57212 13.8555 4 15.4276 4 17.3669C4 19.3062 5.57212 20.8783 7.51143 20.8783Z" fill="#FF9F00"/>
<path d="M68.3747 20.8783C70.314 20.8783 71.8861 19.3062 71.8861 17.3669C71.8861 15.4276 70.314 13.8555 68.3747 13.8555C66.4354 13.8555 64.8633 15.4276 64.8633 17.3669C64.8633 19.3062 66.4354 20.8783 68.3747 20.8783Z" fill="#FF9F00"/>
<path d="M38.9979 67.4354C54.4608 67.4354 66.9959 66.6664 66.9959 65.7177C66.9959 64.769 54.4608 64 38.9979 64C23.5351 64 11 64.769 11 65.7177C11 66.6664 23.5351 67.4354 38.9979 67.4354Z" fill="#D5DDE6" fill-opacity="0.44"/>
</svg>
