<svg width="75" height="75" viewBox="0 0 75 75" fill="none" xmlns="http://www.w3.org/2000/svg">
<path d="M36.9974 72.4354C52.4603 72.4354 64.9954 71.6664 64.9954 70.7177C64.9954 69.769 52.4603 69 36.9974 69C21.5346 69 8.99951 69.769 8.99951 70.7177C8.99951 71.6664 21.5346 72.4354 36.9974 72.4354Z" fill="#D5DDE6" fill-opacity="0.44"/>
<path d="M55.1057 10.6057C53.6106 10.6057 52.3943 9.38937 52.3943 7.89434C52.3943 7.40042 51.9939 7 51.5 7C51.0061 7 50.6057 7.40042 50.6057 7.89434C50.6057 9.38937 49.3894 10.6057 47.8943 10.6057C47.4004 10.6057 47 11.0061 47 11.5C47 11.9939 47.4004 12.3943 47.8943 12.3943C49.3894 12.3943 50.6057 13.6106 50.6057 15.1057C50.6057 15.5996 51.0061 16 51.5 16C51.9939 16 52.3943 15.5996 52.3943 15.1057C52.3943 13.6106 53.6106 12.3943 55.1057 12.3943C55.5996 12.3943 56 11.9939 56 11.5C56 11.0061 55.5996 10.6057 55.1057 10.6057Z" fill="#FED110"/>
<path d="M22.1057 47.6057C20.6106 47.6057 19.3943 46.3894 19.3943 44.8943C19.3943 44.4004 18.9939 44 18.5 44C18.0061 44 17.6056 44.4004 17.6056 44.8943C17.6056 46.3819 16.3967 47.6057 14.8943 47.6057C14.4004 47.6057 14 48.0061 14 48.5C14 48.9939 14.4004 49.3943 14.8943 49.3943C16.3894 49.3943 17.6056 50.6106 17.6056 52.1057C17.6056 52.5996 18.0061 53 18.5 53C18.9939 53 19.3943 52.5996 19.3943 52.1057C19.3943 50.6183 20.6031 49.3943 22.1057 49.3943C22.5996 49.3943 23 48.9939 23 48.5C23 48.0061 22.5996 47.6057 22.1057 47.6057Z" fill="#FED110"/>
<path d="M50.4823 29.5566L37.4917 67.0003L69.429 29.5566H50.4823Z" fill="#FF9F00"/>
<path d="M18.7686 13.0371L5.55322 29.5564H24.4999L18.7686 13.0371Z" fill="#FFCD73"/>
<path d="M50.48 29.5564H69.4266L56.2112 13.0371L50.48 29.5564Z" fill="#FFCD73"/>
<path d="M50.4817 29.5564L37.4911 13.0371L24.5005 29.5564H50.4817Z" fill="#FFCD73"/>
<path d="M37.4894 13.0371H18.7676L24.4988 29.5564L37.4894 13.0371Z" fill="#FFAA64"/>
<path d="M56.2135 13.0371H37.4917L50.4823 29.5564L56.2135 13.0371Z" fill="#FFE182"/>
<path d="M24.5 29.5566L37.4906 67.0003L50.4812 29.5566H24.5Z" fill="#ED8A39"/>
<path d="M5.55273 29.5566L37.49 67.0003L24.4994 29.5566H5.55273Z" fill="#FF9F00"/>
</svg>
