<svg width="511" height="150" viewBox="0 0 511 150" fill="none" xmlns="http://www.w3.org/2000/svg">
<g opacity="0.3">
<path fill-rule="evenodd" clip-rule="evenodd" d="M51.4355 118.158C50.8954 117.924 50.3554 117.729 49.7768 117.574C47.1924 116.989 44.1452 116.873 40.7507 117.106C39.8636 117.184 39.1693 116.405 38.8992 115.548C38.7064 114.847 39.015 113.173 39.3236 112.16C42.1008 103.826 46.4595 90.1941 52.0912 73.7586C58.4943 52.8053 57.9543 54.9863 63.0459 37.655C65.206 29.7878 65.746 27.1394 66.4789 24.8805C66.7875 23.9847 67.0189 23.2058 67.2118 22.6216C67.2504 22.5047 67.3275 22.3879 67.4047 22.31C68.5618 21.3753 69.2562 21.1806 71.6477 20.4795C74.5406 19.6227 84.3767 18.1038 87.3854 18.1427C90.4327 18.2206 90.6641 19.8564 91.6285 21.6869C91.7056 21.8427 91.7828 21.9984 91.8985 22.1153C93.5957 24.6079 95.4472 24.53 95.4472 24.53C95.7172 24.53 96.7586 24.491 97.2215 24.4131C100.732 23.8679 102.159 20.7132 102.776 18.8438L102.853 18.6101L102.892 18.3374C103.162 17.0133 103.316 15.4554 103.085 13.9365C102.66 10.7818 100.925 8.25025 98.3787 6.49764C97.6844 6.10818 96.3729 5.17345 92.3228 4.82293C85.8425 4.12189 71.1077 6.34186 67.6361 6.92606C59.1886 8.32814 51.3197 10.3144 51.3197 10.3144C48.041 11.2102 40.1336 13.5859 38.3592 14.248C31.9561 16.7017 30.7218 17.2469 26.1316 19.4669C13.1325 25.3868 25.0901 40.1087 28.716 33.4488C30.4903 30.1383 48.1182 23.0889 51.9369 23.7121C52.0912 23.751 52.2069 23.8679 52.2069 23.9847C52.4769 25.9321 48.9668 34.8898 46.7681 43.1465C45.0323 48.638 43.6051 53.4284 37.5492 72.5902C27.4817 103.553 24.3187 114.808 22.9686 119.794C22.8915 120.066 22.39 120.3 22.1586 120.456C20.9243 121.196 14.5211 124.389 11.6282 126.298C9.39095 127.778 8.15661 128.635 6.53655 130.621C5.1865 132.373 4.26473 134.514 4.79826 136.462C5.2662 138.17 6.16907 139.637 7.28947 140.48C9.62949 142.24 13.745 141.879 13.745 141.879C16.2137 141.879 15.2155 138.215 19.8442 135.178C22.5829 133.386 25.553 131.244 32.4961 129.297C41.3679 126.804 45.1095 127.583 49.2754 128.907C50.8183 129.414 53.0555 128.946 54.7527 127.427C55.8713 126.415 56.1028 124.311 55.6785 122.87C54.9842 120.339 53.827 119.326 51.4355 118.158Z" fill="black"/>
<path d="M93.284 77.8919C91.1368 82.7313 89.1685 87.8596 87.415 93.3491C85.6614 98.8024 84.0868 104.653 82.6912 110.901C81.9396 114.585 81.6891 117.582 81.9396 119.857C81.9396 120.002 81.9754 120.074 82.047 120.146C82.1186 120.219 82.1544 120.363 82.1544 120.616C82.4049 122.024 83.049 122.891 84.051 123.288C85.4467 123.686 86.9498 123.216 88.5959 121.952C90.2421 120.688 91.781 119.027 93.2124 117.004C94.6439 114.982 96.0038 112.851 97.2921 110.612C98.5446 108.373 99.5109 106.567 100.119 105.159C100.37 104.653 100.763 104.147 101.264 103.642C102.016 102.883 103.09 102.558 104.485 102.703C105.738 102.847 106.382 103.533 106.382 104.797C106.382 105.303 106.239 105.953 105.988 106.712C104.986 108.878 103.412 111.876 101.264 115.776C99.1172 119.641 96.7195 123.361 94.0713 126.936C93.3198 127.694 92.6398 128.453 91.9957 129.211C90.7431 130.728 89.4906 131.992 88.2023 133.039C88.0591 133.148 87.9518 133.256 87.8086 133.328C87.6655 133.4 87.5581 133.545 87.415 133.798C86.5203 134.303 85.5899 134.773 84.5878 135.242C83.5858 135.676 82.4407 135.965 81.1881 136.109C80.6871 136.217 79.7924 136.181 78.5399 135.929C76.1422 135.278 74.3171 133.942 73.0646 131.811C71.812 129.717 70.8458 127.442 70.2374 125.022C69.5933 122.205 69.2354 119.171 69.0923 115.849C68.9849 114.44 68.9491 113.104 68.9849 111.84C69.0565 110.576 69.128 109.24 69.2712 107.831C69.5217 105.05 69.9153 102.342 70.4164 99.7414C70.9174 97.1411 71.49 94.8298 72.1341 92.7712C72.6351 90.496 73.2793 88.2569 74.0308 86.09C76.4285 79.0837 78.8978 72.583 81.4028 66.5518C83.9079 60.5206 86.4488 54.8144 88.9538 49.4694C80.365 49.4694 71.8836 49.4333 63.438 49.3611C54.9923 49.2889 46.4751 49.325 37.9221 49.4694C36.5265 49.4694 35.6676 49.1444 35.2739 48.5305C35.0234 48.1332 34.8445 47.772 34.7013 47.3748C34.3077 45.0995 34.5224 43.1493 35.2739 41.5603C36.0254 39.9712 37.2064 38.7433 38.781 37.8404C40.3556 36.9376 42.145 36.3597 44.1848 36.0347C46.2246 35.7097 48.3002 35.6374 50.4117 35.7458C57.9626 35.9986 65.4062 36.2514 72.7067 36.5403C80.0072 36.8292 87.3792 37.1543 94.8228 37.5154C96.97 33.5428 98.9383 29.8952 100.763 26.6809C102.589 23.4306 104.199 20.722 105.595 18.5912C107.098 16.0632 108.565 13.824 109.925 11.9099C110.676 11.0071 111.428 10.3209 112.179 9.81528C112.823 9.30967 113.539 8.91241 114.362 8.6596C115.185 8.4068 116.044 8.58737 116.903 9.23744C117.655 9.74305 118.657 10.6459 119.945 11.9099C121.198 13.174 122.307 14.6547 123.237 16.2798C124.168 17.9411 124.812 19.6746 125.134 21.5165C125.456 23.3584 125.17 25.0558 124.275 26.5726C123.631 27.5838 122.557 29.1006 121.054 31.1592C119.551 33.1816 117.655 35.6736 115.4 38.5989C119.694 38.8517 116.366 39.1045 123.166 39.285C129.965 39.5017 128.534 39.7184 136.622 39.9712C144.674 40.224 143.063 40.5129 151.831 40.7657C160.599 41.0186 156.018 40.9102 164.07 41.1269C172.122 41.3436 162.137 41.0908 169.08 41.3075C176.023 41.5242 168.257 41.3436 172.659 41.488C173.052 41.488 168.472 42.6437 169.295 42.7882C170.118 42.9326 170.905 43.1132 171.657 43.366C172.408 43.6188 173.088 43.9077 173.625 44.2328C174.197 44.5578 174.484 44.9551 174.484 45.4607C174.484 45.9663 173.911 46.3997 172.766 46.7969C171.621 47.1942 170.333 47.447 168.901 47.6637C167.47 47.8443 169.509 47.2303 168.006 47.3025C166.503 47.3748 176.058 48.1332 175.199 48.1332C170.798 48.386 172.372 48.9638 165.501 49.1083C158.63 49.2528 165.394 49.1805 157.27 49.2889C149.147 49.4333 156.447 49.325 147.715 49.3972C138.948 49.4694 138.053 49.5056 129.929 49.5056H108.243C105.738 53.3337 103.197 57.5953 100.692 62.2902C98.151 66.9852 95.6817 72.1857 93.284 77.8919Z" fill="black"/>
<path d="M105.563 123.686C105.67 123.794 105.742 123.938 105.742 124.083C105.742 124.191 105.599 124.661 105.348 125.419C105.098 125.672 104.919 126.069 104.776 126.575C104.632 127.08 104.597 127.55 104.597 128.019C104.597 128.453 104.74 128.922 105.062 129.356C105.384 129.789 105.957 130.078 106.851 130.222C107.996 130.475 108.819 130.295 109.392 129.645C109.965 128.995 110.322 128.164 110.537 127.08C110.716 125.997 110.752 124.733 110.645 123.252C110.501 121.808 110.394 120.363 110.251 118.955C110 116.029 109.714 113.357 109.392 110.937C109.07 108.517 108.784 106.025 108.533 103.497V101.222C107.531 103.245 106.565 105.086 105.599 106.748C104.668 108.409 103.881 109.745 103.237 110.757C102.986 111.262 102.593 111.696 102.092 112.093C101.698 112.346 101.268 112.526 100.767 112.562C100.266 112.635 99.7654 112.346 99.2644 111.696C98.6203 111.045 98.2982 110.504 98.2266 109.962C98.155 109.456 98.1908 108.951 98.334 108.445C98.4771 107.94 98.7276 107.362 99.0855 106.712C99.837 104.942 100.767 102.883 101.841 100.608C102.915 98.333 103.917 96.0216 104.883 93.7464C105.813 91.4712 106.708 89.3765 107.531 87.5346C108.354 85.6928 108.891 84.2482 109.142 83.237C109.392 80.4561 109.714 77.9642 110.072 75.7973C110.466 73.6304 110.967 72.2942 111.575 71.7885C112.47 71.0301 113.615 70.3439 115.082 69.8022C116.514 69.2244 118.124 68.791 119.806 68.466C121.524 68.1409 123.241 67.9604 124.995 67.8881C126.749 67.8159 128.395 67.852 129.898 67.9965C130.542 68.2493 131.043 68.6465 131.401 69.1522C131.651 69.6578 131.794 70.3801 131.794 71.2468C131.794 72.1497 131.472 73.4859 130.864 75.2556C130.22 76.6641 129.647 78.4698 129.075 80.7089C128.502 82.9481 128.001 85.4039 127.572 88.1486C127.142 90.8933 126.892 93.7825 126.82 96.8162C126.749 99.8859 126.927 102.811 127.285 105.592C127.786 108.517 128.287 111.912 128.788 115.813C129.289 119.677 129.218 123.397 128.609 126.972C127.965 130.548 126.391 133.617 123.886 136.218C121.381 138.818 117.265 140.262 111.611 140.515C108.211 140.624 105.384 140.19 103.094 139.179C101.09 138.421 99.3718 137.084 97.9761 135.17C96.5804 133.256 96.2584 130.475 97.0457 126.792C97.1888 126.033 97.3677 125.347 97.6182 124.697C97.8687 124.047 98.1908 123.469 98.5487 122.891C98.9423 122.313 99.4434 121.844 100.052 121.447C100.159 121.302 100.374 121.266 100.624 121.266C101.268 121.266 101.877 121.338 102.521 121.447C103.165 121.699 103.738 121.988 104.31 122.313C104.883 122.638 105.312 123.036 105.563 123.686Z" fill="black"/>
<path d="M247.708 106.748C246.313 109.818 244.523 113.393 242.305 117.511C240.086 121.664 237.545 125.492 234.646 129.067C231.747 132.643 228.491 135.46 224.912 137.554C221.334 139.649 217.504 140.119 213.461 138.999C211.206 138.349 209.345 137.265 207.985 135.676C206.59 134.087 205.48 132.173 204.693 129.97C203.87 127.731 203.333 125.311 203.082 122.711C202.832 120.111 202.832 117.547 203.082 114.983C203.333 111.696 203.834 108.518 204.585 105.557C205.337 102.559 206.16 99.9226 207.055 97.6474C208.057 94.9749 209.13 92.4829 210.276 90.2077C212.423 86.1267 214.749 82.768 217.254 80.0955C219.401 77.8203 221.906 76.0146 224.805 74.7505C227.704 73.4865 230.781 73.8477 234.074 75.9062C235.326 74.6422 236.758 73.6671 238.332 73.0531C239.907 72.4031 241.589 72.2225 243.342 72.4753C246.098 72.8726 248.209 74.0643 249.569 76.0868C250.929 78.1092 251.824 80.4567 252.11 83.1292C252.432 85.8017 252.396 88.5825 252.003 91.5078C251.609 94.4332 251.18 96.9251 250.679 98.9475C253.971 97.9363 256.977 96.4556 259.768 94.5776C262.524 92.6635 264.635 91.0022 265.995 89.6299C266.639 88.9798 267.176 88.5464 267.713 88.2936C268.214 88.0408 268.608 87.9686 268.93 88.113C269.252 88.2575 269.467 88.7992 269.574 89.8466C269.681 90.605 269.681 91.3634 269.574 92.1218C269.323 93.6386 268.751 94.9749 267.856 96.1306C265.852 98.4058 262.989 100.609 259.339 102.703C255.796 104.762 251.86 106.134 247.708 106.748ZM217.075 114.766C216.073 118.197 215.644 120.942 215.751 122.964C215.858 124.986 216.18 126.539 216.681 127.551C217.182 128.815 217.934 129.573 218.936 129.826C220.582 130.331 222.336 129.934 224.232 128.67C226.129 127.406 227.954 125.6 229.708 123.325C231.461 121.05 233.143 118.377 234.718 115.308C236.292 112.238 237.724 109.132 238.976 105.954C237.223 105.448 235.505 104.509 233.859 103.101C231.712 101.331 230.244 99.1642 229.421 96.6001C228.598 94.072 228.312 91.4356 228.562 88.7631C226.916 90.4244 225.413 92.6274 224.018 95.4444C222.622 98.2613 221.441 101.114 220.439 104.04C219.222 107.398 218.077 110.974 217.075 114.766ZM235.612 89.7743C235.469 91.2912 235.612 92.5913 236.006 93.6747C236.4 94.7582 236.901 95.6611 237.509 96.4556C238.117 97.2501 238.833 97.828 239.585 98.2613C240.336 98.6947 240.98 98.9836 241.481 99.1281C243.235 93.4219 243.808 89.1604 243.199 86.3434C242.949 85.4405 242.448 84.7905 241.696 84.3571C240.945 83.9237 240.157 83.7793 239.334 83.9598C238.511 84.1404 237.76 84.6821 237.08 85.585C236.328 86.4879 235.863 87.8964 235.612 89.7743Z" fill="black"/>
<path d="M465.723 111.732C462.86 111.985 461.071 108.012 460.355 99.7779C459.353 88.4378 461.071 73.6307 465.437 55.3205C469.338 38.9604 474.205 25.8507 480.074 15.9913C483.259 10.6463 486.622 7.32376 490.094 5.98751C491.919 5.33744 493.637 4.9763 495.211 4.83184C496.857 4.68738 498.289 4.68738 499.541 4.79572C500.794 4.94018 501.903 5.19298 502.87 5.55413C504.981 6.31255 506.126 7.43211 506.269 8.91282C506.412 10.3935 505.947 12.0187 504.909 13.7522C503.872 15.4857 502.261 18.5194 500.007 22.7448C497.788 27.0064 495.211 32.4959 492.348 39.3216C485.37 55.6455 478.857 74.7864 472.809 96.7443C472.165 98.9473 471.628 100.97 471.198 102.775C470.805 104.545 470.375 106.062 469.91 107.362C468.944 110.143 467.548 111.551 465.723 111.732ZM453.77 144.199C452.375 143.007 451.23 141.635 450.299 140.046C449.404 138.385 448.832 136.471 448.653 134.304C448.438 132.065 448.689 130.042 449.369 128.273C450.084 126.431 451.051 124.914 452.267 123.722C454.379 121.627 456.705 120.472 459.21 120.255C461.787 120.038 463.97 120.002 465.759 120.219C467.62 120.4 469.302 120.833 470.912 121.447C474.777 123 476.853 125.564 477.139 129.103C477.533 133.545 476.423 137.518 473.847 141.093C471.413 144.416 468.765 146.33 465.866 146.872C463.003 147.413 460.641 147.377 458.781 146.8C456.92 146.258 455.238 145.391 453.77 144.199Z" fill="black"/>
<path d="M276.297 105.629L269.677 126.431C269.283 128.598 269.032 130.367 268.818 131.776C268.639 133.184 268.388 134.268 268.174 135.026C267.673 136.796 266.635 138.168 265.06 139.143C263.485 140.082 261.768 140.804 259.943 141.238C258.117 141.671 256.292 141.924 254.467 141.996C252.642 142.068 251.282 141.96 250.388 141.707C249.386 141.455 248.67 140.985 248.312 140.263C247.918 139.577 247.668 138.782 247.56 137.879C247.417 136.868 247.417 135.784 247.56 134.629C249.207 127.875 251.211 120.652 253.608 112.888C255.756 106.279 258.475 98.6584 261.732 89.9908C264.989 81.3593 268.961 72.1861 273.649 62.5074L273.828 62.3268L277.979 53.7314C280.484 48.3864 282.953 43.6193 285.351 39.4299C287.749 35.2406 289.824 31.593 291.578 28.5593C289.574 28.1621 286.568 27.5842 282.596 26.7536C278.623 25.923 274.579 25.0923 270.5 24.2617C266.384 23.431 262.734 22.7448 259.549 22.167C256.328 21.5892 254.431 21.3725 253.787 21.5169C251.282 22.0225 249.565 22.9254 248.67 24.1894C248.527 24.4422 248.348 25.0562 248.097 25.9952C247.847 26.9342 248.205 27.8009 249.242 28.5593L250.96 29.715C251.604 30.1123 251.891 30.5095 251.819 30.9429C251.747 31.3763 251.676 31.7375 251.533 31.9903C250.03 34.5183 248.419 36.2518 246.702 37.1547C244.984 38.0576 243.517 38.5993 242.264 38.8882C240.618 39.141 239.365 38.8882 238.471 38.1298C237.469 37.6242 236.431 36.9019 235.357 35.9268C234.284 34.9878 233.317 33.7599 232.423 32.3153C231.528 30.8707 230.92 29.2455 230.526 27.4398C230.132 25.6701 230.204 23.7561 230.705 21.7336C231.349 19.4584 232.029 17.6526 232.781 16.3886C233.174 15.7386 234.212 14.5468 235.894 12.7771C237.612 11.0075 240.26 9.59902 243.91 8.5878C249.314 7.17932 255.684 6.74594 262.984 7.25155C270.285 7.75716 277.836 8.66003 285.566 9.92405C293.331 11.1881 300.99 12.5966 308.612 14.1134C316.235 15.6302 323.142 16.6414 329.297 17.1831C339.997 18.1944 348.55 18.3388 354.92 17.5804C361.29 16.822 366.229 15.8108 369.772 14.5106C373.816 13.1022 376.643 11.2603 378.289 8.98506C378.539 8.22665 378.861 7.57658 379.219 7.07097C379.47 6.56536 379.828 6.13199 380.257 5.73472C380.687 5.33746 381.223 5.08465 381.867 4.97631C382.87 4.7235 383.872 4.83185 384.909 5.26523C385.911 5.69861 386.734 6.63759 387.379 8.04608C388.023 9.70736 388.345 11.2964 388.416 12.8132C388.488 14.3301 388.452 15.7386 388.309 17.0026C388.166 18.4111 387.951 19.8195 387.558 21.1919C385.661 26.3924 382.118 30.2206 376.893 32.6403C371.668 35.06 365.549 36.5046 358.57 36.938C351.592 37.3714 344.041 37.1547 335.989 36.2879C327.937 35.3851 320.1 34.2655 312.549 32.857C311.905 34.121 310.903 35.5656 309.507 37.1547C308.111 38.7437 306.465 40.8745 304.497 43.547C302.529 46.2195 300.346 49.7227 297.876 54.0565C295.407 58.3902 292.795 63.9881 290.039 70.8499L276.297 105.629Z" fill="black"/>
<path d="M307.15 82.5518C307.651 83.0574 307.973 83.7074 308.08 84.4659C308.188 85.1159 308.188 85.9104 307.973 86.9578C307.794 87.969 307.329 89.1969 306.542 90.5693C306.04 91.4721 305.289 92.8445 304.287 94.7586C303.285 96.6727 302.176 98.8757 300.995 101.332C299.778 103.823 298.633 106.424 297.488 109.168C296.342 111.913 295.483 114.441 294.839 116.789C294.195 119.136 293.945 121.159 294.088 122.784C294.195 124.445 294.911 125.456 296.163 125.854C297.559 126.359 299.026 125.962 300.601 124.626C302.176 123.289 303.714 121.628 305.217 119.678C306.72 117.692 308.08 115.597 309.297 113.394C310.478 111.155 311.48 109.349 312.232 107.941C312.339 107.435 312.661 106.929 313.162 106.424C314.057 105.521 315.166 105.16 316.562 105.268C317.814 105.665 318.458 106.424 318.458 107.543C318.458 108.049 318.315 108.627 318.065 109.277C317.313 110.938 316.204 113.141 314.772 115.85C313.341 118.594 311.695 121.339 309.87 124.156C308.045 126.937 306.076 129.609 304.001 132.065C301.925 134.557 299.742 136.435 297.488 137.699C296.092 138.602 294.696 139.144 293.336 139.324C291.941 139.505 290.688 139.541 289.543 139.433C288.147 139.288 286.895 139.035 285.75 138.674C283.495 137.663 281.849 136.002 280.847 133.727C279.845 131.451 279.308 128.815 279.236 125.89C279.165 122.964 279.487 119.75 280.167 116.247C280.847 112.744 281.706 109.277 282.708 105.846C285.105 97.8284 288.577 88.9441 293.122 79.157C293.372 78.3985 293.766 77.7485 294.267 77.2429C294.66 76.7373 295.09 76.3039 295.591 75.9066C296.092 75.5094 296.664 75.4732 297.309 75.726C298.454 76.1233 299.957 76.8817 301.853 78.0013C303.75 79.1208 305.504 80.6377 307.15 82.5518ZM301.853 69.9477C300.458 68.4308 300.028 66.6251 300.529 64.4943C301.03 62.3996 301.603 60.7745 302.247 59.6188C302.891 58.6076 303.464 57.7047 304.036 56.9463C304.609 56.1879 305.074 55.5017 305.468 54.8516L306.613 53.1181C307.257 52.2152 307.866 51.5291 308.51 51.0234C309.154 50.5178 309.762 50.1567 310.406 49.9761C311.051 49.7955 311.802 50.0122 312.661 50.6262C313.413 51.1318 314.343 51.9624 315.417 53.1181C316.49 54.2738 317.421 55.5378 318.244 56.9463C319.067 58.3548 319.639 59.8355 319.961 61.4245C320.284 63.0136 320.069 64.4943 319.317 65.9028C318.816 66.6612 318.101 67.6724 317.134 68.9726C316.204 70.2366 314.88 71.9701 313.269 74.137C312.625 74.8954 311.838 75.2565 310.8 75.1843C309.798 75.1121 308.724 74.7871 307.579 74.2453C306.434 73.6675 305.361 73.0174 304.359 72.259C303.285 71.4645 302.462 70.7061 301.853 69.9477Z" fill="black"/>
<path d="M372.534 138.421C369.384 137.013 367.452 134.485 366.772 130.801C366.092 127.118 366.056 122.928 366.665 118.197C367.309 113.502 368.418 108.699 370.064 103.787C371.71 98.8757 373.321 94.4696 374.967 90.5331L374.573 90.7137C372.068 94.0363 369.42 97.9006 366.629 102.343C364.231 106.171 361.619 110.938 358.792 116.644C355.964 122.35 353.137 128.995 350.382 136.471C349.988 137.121 349.594 137.591 349.165 137.916C348.735 138.241 348.306 138.53 347.948 138.783C347.555 138.891 347.197 138.963 346.803 138.963H345.873C344.871 138.819 343.94 138.602 343.117 138.313C342.294 137.988 341.686 137.699 341.328 137.446C338.823 135.677 337.32 132.896 336.89 129.14C336.461 125.384 336.604 121.303 337.355 116.825C338.107 112.383 339.288 107.796 340.862 103.101C342.437 98.4062 343.976 94.1807 345.479 90.497L345.085 90.6776C342.294 94.253 339.467 98.5145 336.568 103.462C334.063 107.652 331.272 112.852 328.266 118.992C325.224 125.167 322.289 132.246 319.39 140.263C319.247 141.022 318.961 141.491 318.532 141.708C318.102 141.889 317.744 141.997 317.494 141.997C314.989 141.744 312.985 141.166 311.553 140.263C310.122 139.36 308.941 138.421 308.046 137.41C307.402 136.76 307.116 136.002 307.116 135.135C307.008 134.629 307.008 134.232 307.116 133.979C307.259 131.56 307.545 128.923 308.046 126.07C308.547 123.217 309.12 120.364 309.764 117.475C310.408 114.622 311.088 111.841 311.84 109.168C312.591 106.496 313.271 104.076 313.915 101.909C314.416 100.14 314.953 98.4062 315.526 96.7449C316.098 95.0836 316.563 93.6751 316.957 92.5556C317.458 91.2915 317.78 90.3164 317.887 89.7025C318.532 87.68 319.176 85.7298 319.856 83.888C320.536 82.0461 321.216 80.4209 321.824 79.0125C322.468 77.4956 323.005 76.0149 323.542 74.6426C323.542 74.5342 323.613 74.3898 323.721 74.2453C323.721 74.137 323.828 73.8119 324.114 73.3063C324.508 72.8007 324.937 72.2951 325.438 71.7895C325.939 71.2839 326.619 71.1394 327.514 71.3922C328.516 71.645 329.912 72.259 331.665 73.198C333.419 74.1369 335.137 75.5093 336.783 77.3151C336.89 77.4595 337.033 77.7123 337.176 78.0735C337.284 78.3263 337.427 78.6513 337.57 79.0125C337.677 79.4097 337.749 79.8431 337.749 80.3487C337.749 80.9988 337.677 81.6489 337.57 82.335C337.427 83.0212 337.069 83.8157 336.425 84.7186C336.425 84.9714 336.353 85.152 336.246 85.2965C336.103 85.5493 335.745 86.3438 335.101 87.68C334.457 89.0163 333.884 90.2081 333.383 91.2193C332.989 92.2305 332.56 93.314 332.059 94.4696C331.558 95.6253 331.164 96.5643 330.914 97.3227L329.196 101.909C331.2 98.2256 333.347 94.6141 335.638 91.0387C337.892 87.4634 340.218 84.4297 342.544 81.8655C344.871 79.3375 347.161 77.4956 349.451 76.34C351.706 75.1843 353.781 75.0759 355.678 75.9427C356.823 76.4483 358.183 77.2067 359.829 78.2179C361.476 79.2292 363.05 80.5654 364.553 82.2267C364.947 82.8768 365.197 83.5629 365.305 84.3214C365.412 84.9714 365.412 85.7659 365.305 86.8133C365.162 87.8245 364.732 89.0524 363.981 90.4248C363.587 91.0748 363.05 92.0499 362.263 93.3862C361.511 94.7225 360.688 96.2754 359.794 98.045C358.899 99.8147 357.968 101.765 356.966 103.86C355.964 105.954 355.07 108.013 354.318 110.071C356.465 105.882 358.827 101.512 361.404 96.9977C363.981 92.4833 366.665 88.4746 369.42 84.9714C372.176 81.4683 374.931 78.7958 377.651 76.9539C380.371 75.1121 382.84 74.7509 385.13 75.9066C386.276 76.4122 387.636 77.1706 389.282 78.1818C390.928 79.193 392.502 80.5293 394.006 82.1906C394.399 82.8406 394.65 83.5268 394.757 84.2852C394.864 84.9353 394.864 85.7298 394.757 86.7772C394.614 87.7884 394.184 89.0163 393.433 90.3887C392.932 91.2915 392.18 92.6639 391.178 94.578C390.176 96.4921 389.067 98.6951 387.886 101.151C386.669 103.643 385.524 106.243 384.379 108.988C383.234 111.733 382.375 114.261 381.731 116.608C381.087 118.956 380.8 120.978 380.872 122.603C380.943 124.264 381.588 125.276 382.84 125.673C384.343 126.07 385.882 125.601 387.457 124.337C389.031 123.073 390.57 121.411 392.073 119.389C393.576 117.367 394.936 115.236 396.153 112.997C397.334 110.757 398.336 108.952 399.087 107.543C399.195 107.038 399.517 106.532 400.018 106.026C400.769 105.268 401.914 104.943 403.417 105.087C404.169 105.232 404.634 105.485 404.849 105.846C405.028 106.243 405.135 106.676 405.135 107.182C405.135 107.688 404.992 108.338 404.742 109.096C403.99 110.757 402.916 112.924 401.521 115.597C400.125 118.269 398.515 121.014 396.69 123.795C394.864 126.576 392.86 129.248 390.749 131.812C388.602 134.341 386.419 136.255 384.128 137.519C382.733 138.277 381.337 138.747 379.977 138.963C378.582 139.144 377.329 139.18 376.184 139.072C374.931 139.108 373.679 138.855 372.534 138.421Z" fill="black"/>
<path d="M400.732 104.473C403.13 97.9726 405.85 92.7359 408.856 88.7272C411.898 84.7184 414.904 81.6848 417.91 79.554C420.952 77.4593 423.922 76.2314 426.892 75.8341C429.863 75.4369 432.475 75.7258 434.73 76.5926C436.877 77.4954 438.416 78.7956 439.346 80.493C440.277 82.2265 440.885 84.0322 441.136 85.9463C441.243 86.5964 441.35 87.2826 441.422 88.041C441.493 88.7994 441.458 89.7023 441.314 90.7135C441.171 92.4831 440.742 94.8306 439.99 97.6837C439.239 100.537 437.843 103.426 435.839 106.351C433.835 109.277 430.936 112.057 427.25 114.658C423.529 117.258 418.59 119.136 412.399 120.292C412.148 122.458 412.256 124.553 412.757 126.576C413.258 128.598 414.725 130.079 417.123 130.945C417.624 131.198 418.196 131.343 418.84 131.343H419.019L419.198 131.523C421.453 131.776 423.6 131.632 425.64 131.126C427.644 130.62 429.505 129.898 431.223 128.923C432.94 127.984 434.443 126.901 435.768 125.673C437.092 124.445 438.237 123.289 439.275 122.133C439.525 121.881 439.74 121.628 439.919 121.375C440.098 121.122 440.312 120.869 440.563 120.617C441.314 119.605 441.744 119.028 441.887 118.883C443.283 116.969 444.535 115.019 445.68 112.96C446.826 110.938 447.684 109.204 448.329 107.796C448.436 107.29 448.758 106.785 449.259 106.279C450.154 105.376 451.263 105.015 452.659 105.123C453.41 105.376 453.876 105.701 454.09 106.062C454.269 106.46 454.377 106.893 454.377 107.399C454.377 107.904 454.233 108.482 453.983 109.132C453.339 110.396 452.623 111.913 451.8 113.61C450.977 115.344 449.939 117.222 448.687 119.244C448.185 120.508 446.969 122.495 445.108 125.167C444.857 125.564 444.571 125.962 444.249 126.395C443.927 126.828 443.533 127.37 443.032 128.02C440.527 130.945 437.378 133.835 433.692 136.688C429.97 139.541 425.604 141.094 420.558 141.347C419.055 141.599 417.337 141.599 415.441 141.347C410.789 140.841 407.138 139.758 404.562 138.096C401.985 136.435 400.053 134.413 398.8 131.993C397.655 129.826 397.011 127.478 396.796 124.95C396.617 122.422 396.689 119.858 397.082 117.33V117.15C397.762 113.43 398.943 109.168 400.732 104.473ZM416.586 107.543C416.085 108.554 415.655 109.457 415.369 110.216C415.047 110.974 414.761 111.732 414.51 112.491C417.91 111.985 420.809 110.902 423.206 109.24C425.604 107.579 427.608 105.737 429.254 103.715C430.901 101.692 432.117 99.67 432.94 97.7198C433.764 95.7335 434.229 94.1444 434.372 92.8443C434.622 90.569 434.408 89.1967 433.728 88.7272C433.048 88.2938 432.547 88.0771 432.296 88.0771C431.652 88.0771 430.829 88.2938 429.827 88.7272C428.825 89.1606 427.644 90.0634 426.32 91.3997C424.996 92.7359 423.529 94.6861 421.882 97.2142C420.236 99.7783 418.483 103.209 416.586 107.543Z" fill="black"/>
<path d="M172.301 129.97C167.684 132.896 162.925 134.701 157.986 135.388C152.547 136.182 148.002 135.749 144.387 134.087C140.773 132.426 138.017 129.754 136.121 126.142C134.224 122.531 133.15 118.089 132.9 112.816C132.649 107.579 133.186 101.765 134.474 95.4084C135.798 89.0522 137.803 82.2987 140.594 75.1479C143.349 67.9972 146.785 60.7381 150.9 53.4068C154.408 47.0505 158.022 41.0194 161.815 35.3132C165.609 29.5709 169.545 24.551 173.589 20.2172C177.633 15.8834 181.856 12.3441 186.15 9.59939C190.48 6.85465 194.99 5.30171 199.749 4.90445C201.574 4.72387 203.507 5.15725 205.547 6.20459C207.586 7.25192 209.412 8.76874 211.093 10.7551C212.775 12.7775 214.1 15.2694 215.137 18.2309C216.175 21.2284 216.605 24.6232 216.426 28.4153C216.283 31.8462 215.495 35.6382 214.064 39.7192C212.632 43.8363 210.915 47.8451 208.91 51.8538C206.906 55.8265 204.831 59.5102 202.612 62.8689C200.393 66.2276 198.425 68.864 196.671 70.8503C195.848 71.717 194.775 72.3671 193.379 72.7644C191.983 73.1616 190.48 73.4505 188.87 73.595C187.26 73.7395 185.613 73.7033 184.003 73.5589C182.357 73.3783 180.961 73.0894 179.78 72.6921C178.599 72.2949 177.705 71.8254 177.168 71.2475C176.631 70.6697 176.595 70.0919 177.096 69.4418C178.492 68.3583 180.031 66.6971 181.748 64.4941C183.466 62.2549 185.22 59.763 187.045 56.9821C188.87 54.2013 190.695 51.276 192.52 48.2423C194.345 45.2087 195.992 42.3195 197.53 39.5748C199.033 36.8661 200.357 34.4464 201.395 32.3518C202.433 30.2571 203.185 28.7764 203.543 27.8735C204.867 24.551 205.117 22.1313 204.258 20.5783C203.435 19.0254 201.646 19.0976 198.962 20.795C194.274 23.7925 189.586 28.4153 184.826 34.7354C180.067 41.0555 175.2 48.5313 170.189 57.1266C168.436 59.9797 166.396 63.844 164.07 68.6834C161.744 73.5589 159.489 78.7594 157.27 84.285C155.052 89.8467 153.119 95.4445 151.473 101.042C145.139 125.131 155.982 125.564 161.851 123.289C162.03 123.217 166.11 121.556 166.253 121.483C184.504 112.996 176.881 127.081 172.301 129.97Z" fill="black"/>
<path d="M184.361 98.1883C181.748 98.8383 180.245 98.6939 178.742 97.791C177.239 96.9242 177.06 96.7437 175.987 95.4074C174.913 94.0712 174.591 93.2044 174.161 91.7959C173.804 90.5319 173.804 89.7013 174.126 89.1234C174.483 88.5095 175.02 88.3289 175.163 88.2567C176.881 87.3899 187.474 85.0786 190.981 83.959C198.604 81.8643 202.612 80.3475 206.298 79.0474C209.125 78 212.668 76.6999 214.743 75.8331C215.388 75.5081 216.103 75.7609 216.855 76.4832C217.606 77.2416 217.749 78.614 217.248 80.5642C215.817 86.1259 214.135 91.9765 212.131 98.0799C210.127 104.183 208.481 110.034 207.121 115.704C205.761 121.374 205.009 126.575 204.902 131.306C204.795 136.037 205.904 139.829 208.23 142.718C207.515 144.488 206.298 145.607 204.616 146.041C202.934 146.51 201.145 146.402 199.284 145.679C197.423 144.957 195.669 143.729 194.095 141.923C192.484 140.118 191.375 137.806 190.766 134.953C190.444 130.439 190.874 126.322 192.055 122.638C193.271 118.954 194.846 115.307 196.814 111.731C198.783 108.156 200.93 104.472 203.184 100.716C205.439 96.9604 207.443 92.6627 209.161 87.8233L207.228 91.5792C204.652 96.1297 201.646 100.789 198.246 105.52C194.846 110.251 191.124 114.693 187.045 118.774C182.965 122.855 178.635 126.358 174.054 129.283C169.438 132.209 164.678 134.014 159.739 134.7C154.3 135.495 154.515 127.658 157.914 124.444C167.541 122.096 177.668 114.007 179.529 112.201C190.301 101.836 191.84 98.2966 194.703 94.7935C192.126 96.4548 184.361 98.1883 184.361 98.1883Z" fill="url(#paint0_linear_5780_10014)"/>
</g>
<defs>
<linearGradient id="paint0_linear_5780_10014" x1="163.353" y1="122.784" x2="219.093" y2="107.989" gradientUnits="userSpaceOnUse">
<stop/>
<stop offset="1" stop-color="#E5B80B"/>
</linearGradient>
</defs>
</svg>
