<svg width="178" height="50" viewBox="0 0 178 50" fill="none" xmlns="http://www.w3.org/2000/svg">
<path fill-rule="evenodd" clip-rule="evenodd" d="M16.5605 39.7949C16.3693 39.7129 16.1782 39.6446 15.9734 39.59C15.0587 39.3851 13.9802 39.3441 12.7789 39.4261C12.4649 39.4534 12.2191 39.1802 12.1236 38.8797C12.0553 38.6339 12.1645 38.0465 12.2738 37.6914C13.2567 34.7684 14.7994 29.9878 16.7925 24.2237C19.0588 16.8752 18.8676 17.6401 20.6697 11.5619C21.4342 8.80284 21.6253 7.87404 21.8847 7.08183C21.9939 6.76767 22.0758 6.49449 22.1441 6.28961C22.1577 6.24863 22.185 6.20766 22.2123 6.18034C22.6219 5.85253 22.8676 5.78423 23.7141 5.53837C24.7379 5.23787 28.2192 4.70518 29.284 4.71884C30.3625 4.74616 30.4444 5.31983 30.7857 5.9618C30.813 6.01643 30.8404 6.07107 30.8813 6.11204C31.482 6.98621 32.1373 6.9589 32.1373 6.9589C32.2328 6.9589 32.6014 6.94524 32.7653 6.91792C34.0076 6.72669 34.5127 5.62032 34.7311 4.9647L34.7584 4.88274L34.7721 4.78713C34.8677 4.32273 34.9223 3.77637 34.8404 3.24368C34.6902 2.13731 34.0758 1.24948 33.1748 0.63483C32.9291 0.498241 32.4649 0.170428 31.0315 0.0474976C28.738 -0.198362 23.5229 0.580194 22.2943 0.785078C19.3045 1.2768 16.5195 1.9734 16.5195 1.9734C15.3591 2.28756 12.5604 3.12075 11.9325 3.35295C9.66624 4.21346 9.22938 4.40468 7.6048 5.18324C3.00411 7.25939 7.2362 12.4225 8.51948 10.0868C9.14747 8.92577 15.3864 6.45352 16.7379 6.67206C16.7925 6.68572 16.8335 6.72669 16.8335 6.76767C16.9291 7.45061 15.6867 10.5922 14.9086 13.4878C14.2942 15.4137 13.7891 17.0938 11.6458 23.814C8.08262 34.6728 6.96316 38.6202 6.48535 40.3685C6.45804 40.4641 6.28057 40.5461 6.19866 40.6007C5.76179 40.8603 3.49558 41.9803 2.47168 42.6496C1.67987 43.1686 1.24301 43.4691 0.669632 44.1657C0.191815 44.7804 -0.13442 45.5311 0.0544101 46.2142C0.220024 46.8132 0.539572 47.3276 0.936109 47.6232C1.7643 48.2407 3.22089 48.114 3.22089 48.114C4.09461 48.114 3.74131 46.8292 5.37954 45.7638C6.34883 45.1355 7.40002 44.3843 9.85737 43.7013C12.9973 42.8271 14.3215 43.1003 15.7959 43.5647C16.342 43.7423 17.1338 43.5784 17.7345 43.0457C18.1304 42.6906 18.2123 41.953 18.0622 41.4476C17.8164 40.5598 17.4069 40.2046 16.5605 39.7949Z" fill="black"/>
<path d="M31.3726 25.6742C30.6127 27.3714 29.9161 29.1699 29.2955 31.0951C28.6748 33.0077 28.1175 35.0595 27.6236 37.2507C27.3576 38.5426 27.2689 39.5939 27.3576 40.3918C27.3576 40.4425 27.3703 40.4678 27.3956 40.4931C27.4209 40.5185 27.4336 40.5691 27.4336 40.6578C27.5223 41.1517 27.7502 41.4557 28.1049 41.595C28.5988 41.7344 29.1308 41.5697 29.7134 41.1264C30.2961 40.6831 30.8407 40.1005 31.3473 39.3912C31.8539 38.6819 32.3352 37.9346 32.7912 37.1494C33.2345 36.3641 33.5765 35.7308 33.7918 35.2368C33.8805 35.0595 34.0198 34.8822 34.1971 34.7049C34.4631 34.4389 34.8431 34.3249 35.337 34.3756C35.7803 34.4262 36.0083 34.6669 36.0083 35.1102C36.0083 35.2875 35.9577 35.5155 35.869 35.7815C35.5143 36.5414 34.9571 37.5927 34.1971 38.9606C33.4372 40.3158 32.5886 41.6204 31.6513 42.8743C31.3853 43.1403 31.1447 43.4062 30.9167 43.6722C30.4734 44.2042 30.0301 44.6475 29.5741 45.0148C29.5234 45.0528 29.4854 45.0908 29.4348 45.1161C29.3841 45.1415 29.3461 45.1921 29.2955 45.2808C28.9788 45.4581 28.6495 45.6228 28.2949 45.7874C27.9402 45.9394 27.5349 46.0407 27.0916 46.0914C26.9143 46.1294 26.5977 46.1167 26.1544 46.0281C25.3057 45.8001 24.6598 45.3314 24.2165 44.5842C23.7732 43.8495 23.4312 43.0516 23.2159 42.203C22.9879 41.2151 22.8613 40.1511 22.8106 38.9859C22.7726 38.4919 22.7599 38.0233 22.7726 37.58C22.7979 37.1367 22.8233 36.6681 22.8739 36.1741C22.9626 35.1988 23.1019 34.2489 23.2792 33.337C23.4566 32.425 23.6592 31.6144 23.8872 30.8925C24.0645 30.0945 24.2925 29.3093 24.5585 28.5493C25.4071 26.0922 26.281 23.8123 27.1676 21.6971C28.0542 19.582 28.9535 17.5808 29.8401 15.7062C26.8003 15.7062 23.7985 15.6936 20.8094 15.6683C17.8203 15.6429 14.8058 15.6556 11.7787 15.7062C11.2848 15.7062 10.9808 15.5923 10.8415 15.3769C10.7528 15.2376 10.6895 15.111 10.6388 14.9716C10.4995 14.1737 10.5755 13.4897 10.8415 12.9324C11.1074 12.3752 11.5254 11.9445 12.0827 11.6279C12.64 11.3112 13.2733 11.1086 13.9952 10.9946C14.7172 10.8806 15.4518 10.8553 16.1991 10.8933C18.8715 10.9819 21.506 11.0706 24.0898 11.1719C26.6737 11.2732 29.2828 11.3872 31.9173 11.5139C32.6772 10.1207 33.3738 8.84141 34.0198 7.71416C34.6657 6.57424 35.2357 5.62431 35.7297 4.87703C36.2616 3.99043 36.7809 3.20515 37.2622 2.53387C37.5282 2.21722 37.7942 1.97657 38.0602 1.79925C38.2881 1.62193 38.5415 1.48261 38.8328 1.39395C39.1241 1.30529 39.4281 1.36862 39.732 1.5966C39.998 1.77392 40.3527 2.09057 40.8086 2.53387C41.2519 2.97717 41.6446 3.49646 41.9739 4.06642C42.3032 4.64905 42.5312 5.257 42.6452 5.90296C42.7592 6.54891 42.6578 7.1442 42.3412 7.67616C42.1132 8.0308 41.7332 8.56276 41.2013 9.28471C40.6693 9.99399 39.998 10.8679 39.2001 11.8939C40.72 11.9825 39.5421 12.0712 41.9486 12.1345C44.355 12.2105 43.8484 12.2865 46.7109 12.3752C49.5607 12.4638 48.9907 12.5651 52.0938 12.6538C55.1969 12.7425 53.5757 12.7045 56.4255 12.7805C59.2753 12.8565 55.7416 12.7678 58.1987 12.8438C60.6559 12.9198 57.9074 12.8565 59.4653 12.9071C59.6046 12.9071 57.9834 13.3124 58.2747 13.3631C58.566 13.4137 58.8447 13.4771 59.1106 13.5657C59.3766 13.6544 59.6173 13.7557 59.8073 13.8697C60.0099 13.9837 60.1112 14.123 60.1112 14.3003C60.1112 14.4777 59.9086 14.6297 59.5033 14.769C59.098 14.9083 58.642 14.997 58.1354 15.073C57.6288 15.1363 58.3507 14.921 57.8187 14.9463C57.2868 14.9716 60.6685 15.2376 60.3646 15.2376C58.8067 15.3263 59.364 15.5289 56.9321 15.5796C54.5003 15.6303 56.8941 15.6049 54.019 15.6429C51.1439 15.6936 53.7277 15.6556 50.6373 15.6809C47.5341 15.7062 47.2175 15.7189 44.3424 15.7189H36.6669C35.7803 17.0615 34.8811 18.556 33.9945 20.2026C33.0952 21.8491 32.2213 23.673 31.3726 25.6742Z" fill="black"/>
<path d="M35.718 41.7336C35.756 41.7716 35.7813 41.8223 35.7813 41.8729C35.7813 41.9109 35.7307 42.0756 35.642 42.3416C35.5534 42.4302 35.49 42.5695 35.4394 42.7469C35.3887 42.9242 35.376 43.0888 35.376 43.2535C35.376 43.4055 35.4267 43.5701 35.5407 43.7221C35.6547 43.8741 35.8573 43.9754 36.174 44.0261C36.5793 44.1148 36.8706 44.0514 37.0733 43.8234C37.2759 43.5955 37.4026 43.3041 37.4786 42.9242C37.5419 42.5442 37.5546 42.1009 37.5166 41.5816C37.4659 41.075 37.4279 40.5683 37.3772 40.0744C37.2886 39.0485 37.1872 38.1112 37.0733 37.2626C36.9593 36.414 36.8579 35.54 36.7693 34.6534V33.8555C36.4146 34.5648 36.0727 35.2107 35.7307 35.7934C35.4014 36.376 35.1227 36.8446 34.8947 37.1993C34.8061 37.3766 34.6668 37.5286 34.4894 37.6679C34.3501 37.7565 34.1981 37.8199 34.0208 37.8325C33.8435 37.8579 33.6662 37.7565 33.4888 37.5286C33.2609 37.3006 33.1469 37.1106 33.1215 36.9206C33.0962 36.7433 33.1089 36.566 33.1595 36.3886C33.2102 36.2113 33.2989 36.0087 33.4255 35.7807C33.6915 35.1601 34.0208 34.4381 34.4008 33.6402C34.7808 32.8422 35.1354 32.0316 35.4774 31.2337C35.8067 30.4357 36.1233 29.7011 36.4146 29.0552C36.7059 28.4092 36.8959 27.9026 36.9846 27.548C37.0733 26.5727 37.1872 25.6988 37.3139 24.9388C37.4532 24.1789 37.6305 23.7102 37.8459 23.5329C38.1625 23.2669 38.5678 23.0263 39.0871 22.8363C39.5937 22.6336 40.1637 22.4817 40.759 22.3677C41.3669 22.2537 41.9749 22.1903 42.5955 22.165C43.2161 22.1397 43.7988 22.1523 44.3307 22.203C44.5587 22.2917 44.736 22.431 44.8627 22.6083C44.9514 22.7856 45.002 23.0389 45.002 23.3429C45.002 23.6596 44.888 24.1282 44.6727 24.7488C44.4447 25.2428 44.2421 25.8761 44.0394 26.6614C43.8368 27.4466 43.6594 28.3079 43.5075 29.2705C43.3555 30.2331 43.2668 31.2464 43.2415 32.3103C43.2161 33.3869 43.2795 34.4128 43.4061 35.3881C43.5835 36.414 43.7608 37.6046 43.9381 38.9725C44.1154 40.3277 44.0901 41.6323 43.8748 42.8862C43.6468 44.1401 43.0895 45.2167 42.2029 46.1286C41.3163 47.0405 39.8597 47.5472 37.8585 47.6358C36.6553 47.6738 35.6547 47.5218 34.8441 47.1672C34.1348 46.9012 33.5268 46.4326 33.0329 45.7613C32.5389 45.09 32.4249 44.1148 32.7036 42.8229C32.7542 42.5569 32.8176 42.3162 32.9062 42.0882C32.9949 41.8603 33.1089 41.6576 33.2355 41.4549C33.3749 41.2523 33.5522 41.0876 33.7675 40.9483C33.8055 40.8977 33.8815 40.885 33.9701 40.885C34.1981 40.885 34.4134 40.9103 34.6414 40.9483C34.8694 41.037 35.0721 41.1383 35.2747 41.2523C35.4774 41.3663 35.6294 41.5056 35.718 41.7336Z" fill="black"/>
<path d="M86.0267 35.7927C85.5327 36.8692 84.8995 38.1232 84.1142 39.567C83.3289 41.0236 82.4296 42.3662 81.4037 43.6201C80.3778 44.874 79.2252 45.8619 77.9586 46.5965C76.692 47.3312 75.3368 47.4958 73.9056 47.1032C73.1076 46.8752 72.449 46.4952 71.9677 45.9379C71.4738 45.3806 71.0811 44.7093 70.8025 43.9367C70.5112 43.1515 70.3212 42.3028 70.2325 41.3909C70.1439 40.479 70.1439 39.5797 70.2325 38.6804C70.3212 37.5279 70.4985 36.4133 70.7645 35.3747C71.0305 34.3234 71.3218 33.3988 71.6384 32.6009C71.993 31.6636 72.373 30.7897 72.7783 29.9917C73.5383 28.5605 74.3615 27.3826 75.2481 26.4453C76.0081 25.6474 76.8947 25.0141 77.9206 24.5708C78.9466 24.1275 80.0358 24.2542 81.201 24.9761C81.6444 24.5328 82.151 24.1908 82.7083 23.9755C83.2656 23.7475 83.8609 23.6842 84.4815 23.7729C85.4567 23.9122 86.204 24.3301 86.6853 25.0394C87.1666 25.7487 87.4833 26.572 87.5846 27.5093C87.6986 28.4465 87.6859 29.4218 87.5466 30.4477C87.4073 31.4736 87.2553 32.3476 87.078 33.0569C88.2432 32.7022 89.3071 32.1829 90.2951 31.5243C91.2703 30.853 92.0176 30.2704 92.4989 29.7891C92.7269 29.5611 92.9169 29.4091 93.1069 29.3205C93.2842 29.2318 93.4235 29.2065 93.5375 29.2571C93.6515 29.3078 93.7275 29.4978 93.7655 29.8651C93.8035 30.1311 93.8035 30.397 93.7655 30.663C93.6768 31.195 93.4742 31.6636 93.1575 32.0689C92.4482 32.8669 91.435 33.6395 90.1431 34.3741C88.8892 35.096 87.4959 35.5773 86.0267 35.7927ZM75.1848 38.6044C74.8302 39.8077 74.6782 40.7703 74.7162 41.4796C74.7542 42.1889 74.8682 42.7335 75.0455 43.0881C75.2228 43.5314 75.4888 43.7974 75.8434 43.8861C76.4261 44.0634 77.0467 43.9241 77.718 43.4808C78.3893 43.0375 79.0352 42.4042 79.6558 41.6062C80.2765 40.8083 80.8717 39.871 81.429 38.7944C81.9863 37.7178 82.493 36.6286 82.9363 35.514C82.3156 35.3367 81.7077 35.0074 81.1251 34.5134C80.3651 33.8928 79.8458 33.1328 79.5545 32.2336C79.2632 31.347 79.1619 30.4224 79.2505 29.4851C78.6679 30.0677 78.1359 30.8403 77.642 31.8283C77.148 32.8162 76.73 33.8168 76.3754 34.8427C75.9448 36.0206 75.5395 37.2745 75.1848 38.6044ZM81.7457 29.8398C81.695 30.3717 81.7457 30.8277 81.885 31.2077C82.0243 31.5876 82.2016 31.9043 82.417 32.1829C82.6323 32.4616 82.8856 32.6642 83.1516 32.8162C83.4176 32.9682 83.6455 33.0695 83.8229 33.1202C84.4435 31.119 84.6461 29.6244 84.4308 28.6365C84.3422 28.3199 84.1648 28.0919 83.8989 27.9399C83.6329 27.7879 83.3542 27.7372 83.0629 27.8006C82.7716 27.8639 82.5056 28.0539 82.265 28.3705C81.999 28.6872 81.8343 29.1811 81.7457 29.8398Z" fill="black"/>
<path d="M163.185 37.5421C162.172 37.6308 161.539 36.2375 161.285 33.3497C160.931 29.3727 161.539 24.1797 163.084 17.7582C164.464 12.0206 166.187 7.42294 168.264 3.96519C169.391 2.09066 170.582 0.925406 171.811 0.456773C172.457 0.22879 173.065 0.102133 173.622 0.0514696C174.204 0.00080659 174.711 0.000806299 175.154 0.0388036C175.598 0.0894666 175.99 0.178127 176.332 0.304785C177.08 0.570765 177.485 0.963404 177.536 1.4827C177.586 2.002 177.422 2.57195 177.054 3.17991C176.687 3.78787 176.117 4.85179 175.319 6.33368C174.534 7.82824 173.622 9.75344 172.609 12.1473C170.139 17.8722 167.834 24.585 165.693 32.2858C165.465 33.0584 165.275 33.7677 165.123 34.401C164.984 35.0216 164.832 35.5536 164.667 36.0095C164.325 36.9848 163.831 37.4788 163.185 37.5421ZM158.955 48.9286C158.461 48.5106 158.056 48.0293 157.726 47.472C157.41 46.8894 157.207 46.2181 157.144 45.4582C157.068 44.6729 157.156 43.9636 157.397 43.343C157.65 42.6971 157.992 42.1651 158.423 41.7471C159.17 41.0125 159.993 40.6072 160.88 40.5312C161.792 40.4552 162.565 40.4426 163.198 40.5186C163.857 40.5819 164.452 40.7339 165.022 40.9492C166.39 41.4938 167.124 42.3931 167.226 43.6343C167.365 45.1922 166.972 46.5854 166.06 47.8394C165.199 49.0046 164.262 49.6759 163.236 49.8659C162.223 50.0559 161.387 50.0432 160.728 49.8405C160.069 49.6506 159.474 49.3466 158.955 48.9286Z" fill="black"/>
<path d="M96.1463 35.4012L93.8032 42.6967C93.6638 43.4567 93.5752 44.0773 93.4992 44.5712C93.4358 45.0652 93.3472 45.4452 93.2712 45.7112C93.0939 46.3318 92.7266 46.8131 92.1693 47.1551C91.612 47.4844 91.004 47.7377 90.3581 47.8897C89.7121 48.0417 89.0662 48.1303 88.4202 48.1557C87.7743 48.181 87.293 48.143 86.9763 48.0543C86.6217 47.9657 86.3684 47.801 86.2417 47.5477C86.1024 47.307 86.0137 47.0284 85.9757 46.7118C85.9251 46.3571 85.9251 45.9771 85.9757 45.5718C86.5583 43.2033 87.2676 40.6702 88.1162 37.9471C88.8762 35.6292 89.8388 32.9568 90.9914 29.917C92.1439 26.8899 93.5498 23.6728 95.2091 20.2783L95.2724 20.215L96.7416 17.2006C97.6282 15.326 98.5022 13.6541 99.3508 12.1849C100.199 10.7157 100.934 9.43645 101.555 8.37253C100.845 8.2332 99.7814 8.03055 98.3755 7.73924C96.9696 7.44793 95.5384 7.15662 94.0945 6.8653C92.6379 6.57399 91.346 6.33334 90.2187 6.13069C89.0788 5.92804 88.4075 5.85204 88.1796 5.90271C87.293 6.08003 86.685 6.39667 86.3684 6.83997C86.3177 6.92863 86.2544 7.14395 86.1657 7.47326C86.077 7.80257 86.2037 8.10655 86.571 8.37253L87.179 8.77783C87.4069 8.91716 87.5083 9.05648 87.4829 9.20847C87.4576 9.36046 87.4323 9.48711 87.3816 9.57577C86.8497 10.4624 86.2797 11.0703 85.6717 11.387C85.0638 11.7036 84.5445 11.8936 84.1012 11.9949C83.5186 12.0836 83.0753 11.9949 82.7586 11.729C82.404 11.5516 82.0367 11.2983 81.6567 10.9563C81.2767 10.627 80.9347 10.1964 80.6181 9.68977C80.3015 9.18314 80.0861 8.61318 79.9468 7.97989C79.8075 7.35927 79.8328 6.68798 80.0102 5.9787C80.2381 5.18076 80.4788 4.54747 80.7448 4.10417C80.8841 3.87619 81.2514 3.45822 81.8467 2.83759C82.4546 2.21697 83.3919 1.72301 84.6838 1.36837C86.5963 0.874403 88.8508 0.722414 91.4347 0.899734C94.0185 1.07705 96.6909 1.3937 99.4267 1.837C102.175 2.2803 104.886 2.77427 107.583 3.30623C110.281 3.83819 112.726 4.19283 114.904 4.38282C118.691 4.73746 121.718 4.78812 123.973 4.52214C126.227 4.25616 127.975 3.90152 129.229 3.44555C130.661 2.95159 131.661 2.30563 132.244 1.50769C132.332 1.24171 132.446 1.01373 132.573 0.836405C132.662 0.659085 132.788 0.507096 132.94 0.367773C133.092 0.22845 133.282 0.139789 133.51 0.101792C133.865 0.0131317 134.22 0.0511289 134.587 0.203118C134.942 0.355107 135.233 0.684417 135.461 1.17838C135.689 1.76101 135.803 2.3183 135.828 2.85026C135.853 3.38222 135.841 3.87619 135.79 4.31949C135.739 4.81345 135.663 5.30742 135.524 5.78871C134.853 7.61258 133.599 8.95515 131.75 9.80376C129.901 10.6524 127.735 11.159 125.265 11.311C122.795 11.463 120.123 11.387 117.273 11.083C114.423 10.7664 111.649 10.3737 108.977 9.87975C108.749 10.3231 108.394 10.8297 107.9 11.387C107.406 11.9443 106.824 12.6916 106.127 13.6288C105.43 14.5661 104.658 15.7947 103.784 17.3145C102.91 18.8344 101.985 20.7976 101.01 23.2041L96.1463 35.4012Z" fill="black"/>
<path d="M107.064 27.3074C107.242 27.4847 107.356 27.7127 107.394 27.9787C107.432 28.2067 107.432 28.4853 107.356 28.8526C107.292 29.2073 107.128 29.6379 106.849 30.1192C106.672 30.4359 106.406 30.9172 106.051 31.5884C105.696 32.2597 105.304 33.0323 104.886 33.8936C104.455 34.7676 104.05 35.6795 103.645 36.6421C103.239 37.6047 102.935 38.4913 102.707 39.3146C102.479 40.1378 102.391 40.8471 102.441 41.4171C102.479 41.9997 102.733 42.3543 103.176 42.4937C103.67 42.671 104.189 42.5317 104.747 42.063C105.304 41.5944 105.848 41.0118 106.38 40.3278C106.912 39.6312 107.394 38.8966 107.824 38.124C108.242 37.3387 108.597 36.7054 108.863 36.2114C108.901 36.0341 109.015 35.8568 109.192 35.6795C109.509 35.3628 109.902 35.2362 110.395 35.2742C110.839 35.4135 111.067 35.6795 111.067 36.0721C111.067 36.2494 111.016 36.4521 110.927 36.6801C110.661 37.2627 110.269 38.0353 109.762 38.9852C109.256 39.9478 108.673 40.9104 108.027 41.8984C107.381 42.8736 106.684 43.8109 105.95 44.6722C105.215 45.5461 104.443 46.2047 103.645 46.648C103.151 46.9647 102.657 47.1547 102.175 47.218C101.681 47.2813 101.238 47.294 100.833 47.256C100.339 47.2053 99.8956 47.1167 99.4903 46.99C98.6923 46.6354 98.1097 46.0527 97.7551 45.2548C97.4004 44.4569 97.2104 43.5323 97.1851 42.5063C97.1598 41.4804 97.2738 40.3531 97.5144 39.1246C97.7551 37.896 98.059 36.6801 98.4137 35.4768C99.2623 32.665 100.491 29.5493 102.099 26.1168C102.188 25.8509 102.327 25.6229 102.505 25.4456C102.644 25.2682 102.796 25.1163 102.973 24.9769C103.151 24.8376 103.353 24.8249 103.581 24.9136C103.987 25.0529 104.519 25.3189 105.19 25.7115C105.861 26.1042 106.482 26.6361 107.064 27.3074ZM105.19 22.8871C104.696 22.3551 104.544 21.7218 104.721 20.9746C104.899 20.2399 105.101 19.67 105.329 19.2647C105.557 18.91 105.76 18.5934 105.962 18.3274C106.165 18.0614 106.33 17.8208 106.469 17.5928L106.874 16.9848C107.102 16.6682 107.318 16.4275 107.546 16.2502C107.774 16.0729 107.989 15.9462 108.217 15.8829C108.445 15.8196 108.711 15.8956 109.015 16.1109C109.281 16.2882 109.61 16.5795 109.99 16.9848C110.37 17.3901 110.699 17.8334 110.991 18.3274C111.282 18.8214 111.485 19.3407 111.599 19.898C111.713 20.4553 111.637 20.9746 111.371 21.4685C111.193 21.7345 110.94 22.0891 110.598 22.5451C110.269 22.9884 109.8 23.5964 109.23 24.3563C109.002 24.6223 108.724 24.7489 108.356 24.7236C108.002 24.6983 107.622 24.5843 107.216 24.3943C106.811 24.1917 106.431 23.9637 106.076 23.6977C105.696 23.419 105.405 23.1531 105.19 22.8871Z" fill="black"/>
<path d="M130.205 46.9019C129.09 46.408 128.406 45.5214 128.166 44.2295C127.925 42.9376 127.912 41.4683 128.128 39.8091C128.356 38.1626 128.748 36.478 129.331 34.7555C129.914 33.0329 130.484 31.4877 131.066 30.1071L130.927 30.1705C130.04 31.3357 129.103 32.691 128.115 34.2488C127.266 35.5914 126.342 37.2633 125.341 39.2645C124.341 41.2657 123.34 43.5962 122.365 46.218C122.226 46.446 122.086 46.6106 121.934 46.7246C121.782 46.8386 121.63 46.9399 121.504 47.0286C121.364 47.0666 121.238 47.0919 121.098 47.0919H120.769C120.414 47.0413 120.085 46.9653 119.794 46.8639C119.502 46.7499 119.287 46.6486 119.16 46.56C118.274 45.9393 117.742 44.9641 117.59 43.6468C117.438 42.3296 117.489 40.8984 117.754 39.3278C118.02 37.7699 118.438 36.1614 118.996 34.5148C119.553 32.8683 120.098 31.3864 120.63 30.0945L120.49 30.1578C119.502 31.4117 118.502 32.9063 117.476 34.6415C116.589 36.1107 115.601 37.9346 114.537 40.0878C113.461 42.2536 112.422 44.7361 111.396 47.5479C111.346 47.8139 111.244 47.9785 111.092 48.0545C110.94 48.1178 110.814 48.1558 110.725 48.1558C109.838 48.0672 109.129 47.8645 108.622 47.5479C108.116 47.2312 107.698 46.9019 107.381 46.5473C107.153 46.3193 107.052 46.0533 107.052 45.7493C107.014 45.572 107.014 45.4327 107.052 45.344C107.103 44.4954 107.204 43.5708 107.381 42.5702C107.559 41.5697 107.761 40.5691 107.989 39.5558C108.217 38.5552 108.458 37.5799 108.724 36.6427C108.99 35.7054 109.23 34.8568 109.458 34.0969C109.636 33.4762 109.826 32.8683 110.028 32.2857C110.231 31.703 110.396 31.2091 110.535 30.8164C110.712 30.3731 110.826 30.0311 110.864 29.8158C111.092 29.1065 111.32 28.4226 111.561 27.7766C111.802 27.1307 112.042 26.5607 112.258 26.0668C112.486 25.5348 112.676 25.0155 112.866 24.5342C112.866 24.4962 112.891 24.4456 112.929 24.3949C112.929 24.3569 112.967 24.2429 113.068 24.0656C113.207 23.8883 113.359 23.7109 113.537 23.5336C113.714 23.3563 113.955 23.3056 114.271 23.3943C114.626 23.483 115.12 23.6983 115.741 24.0276C116.361 24.3569 116.969 24.8382 117.552 25.4715C117.59 25.5221 117.641 25.6108 117.691 25.7375C117.729 25.8261 117.78 25.9401 117.83 26.0668C117.868 26.2061 117.894 26.3581 117.894 26.5354C117.894 26.7634 117.868 26.9914 117.83 27.232C117.78 27.4727 117.653 27.7513 117.425 28.068C117.425 28.1566 117.4 28.2199 117.362 28.2706C117.311 28.3593 117.185 28.6379 116.957 29.1065C116.729 29.5752 116.526 29.9932 116.349 30.3478C116.209 30.7024 116.057 31.0824 115.88 31.4877C115.703 31.893 115.563 32.2223 115.475 32.4883L114.867 34.0969C115.576 32.8049 116.336 31.5384 117.147 30.2845C117.944 29.0306 118.768 27.9666 119.591 27.0674C120.414 26.1808 121.225 25.5348 122.036 25.1295C122.833 24.7242 123.568 24.6862 124.239 24.9902C124.645 25.1675 125.126 25.4335 125.709 25.7881C126.291 26.1428 126.849 26.6114 127.38 27.194C127.52 27.422 127.608 27.6627 127.646 27.9286C127.684 28.1566 127.684 28.4353 127.646 28.8026C127.596 29.1572 127.444 29.5878 127.178 30.0691C127.038 30.2971 126.849 30.6391 126.57 31.1077C126.304 31.5764 126.013 32.121 125.696 32.7416C125.379 33.3622 125.05 34.0462 124.695 34.7808C124.341 35.5154 124.024 36.2374 123.758 36.9593C124.518 35.4901 125.354 33.9575 126.266 32.3743C127.178 30.7911 128.128 29.3852 129.103 28.1566C130.078 26.928 131.054 25.9908 132.016 25.3448C132.979 24.6989 133.853 24.5722 134.663 24.9775C135.069 25.1548 135.55 25.4208 136.133 25.7755C136.715 26.1301 137.272 26.5987 137.804 27.1814C137.944 27.4093 138.032 27.65 138.07 27.916C138.108 28.144 138.108 28.4226 138.07 28.7899C138.02 29.1445 137.868 29.5752 137.602 30.0565C137.424 30.3731 137.158 30.8544 136.804 31.5257C136.449 32.197 136.057 32.9696 135.639 33.8309C135.208 34.7048 134.803 35.6167 134.397 36.5793C133.992 37.5419 133.688 38.4285 133.46 39.2518C133.232 40.0751 133.131 40.7844 133.156 41.3543C133.181 41.937 133.409 42.2916 133.853 42.4309C134.385 42.5702 134.929 42.4056 135.487 41.9623C136.044 41.519 136.588 40.9364 137.12 40.2271C137.652 39.5178 138.134 38.7705 138.564 37.9852C138.982 37.2 139.337 36.5667 139.603 36.0727C139.641 35.8954 139.755 35.7181 139.932 35.5408C140.198 35.2748 140.604 35.1608 141.135 35.2114C141.401 35.2621 141.566 35.3508 141.642 35.4774C141.705 35.6167 141.743 35.7687 141.743 35.9461C141.743 36.1234 141.693 36.3514 141.604 36.6173C141.338 37.2 140.958 37.9599 140.464 38.8972C139.97 39.8344 139.4 40.797 138.754 41.7723C138.108 42.7476 137.399 43.6848 136.652 44.5841C135.892 45.4707 135.119 46.142 134.309 46.5853C133.815 46.8513 133.321 47.0159 132.839 47.0919C132.345 47.1552 131.902 47.1679 131.497 47.1299C131.054 47.1426 130.61 47.0539 130.205 46.9019Z" fill="black"/>
<path d="M140.184 34.996C141.033 32.7162 141.995 30.8796 143.059 29.4738C144.136 28.0679 145.2 27.0039 146.263 26.2566C147.34 25.522 148.391 25.0914 149.443 24.9521C150.494 24.8128 151.418 24.9141 152.216 25.2181C152.976 25.5347 153.521 25.9907 153.85 26.586C154.18 27.1939 154.395 27.8272 154.484 28.4985C154.522 28.7265 154.56 28.9671 154.585 29.2331C154.61 29.4991 154.598 29.8157 154.547 30.1704C154.496 30.791 154.344 31.6143 154.078 32.6149C153.812 33.6154 153.318 34.6287 152.609 35.6546C151.9 36.6806 150.874 37.6558 149.569 38.5678C148.252 39.4797 146.504 40.1383 144.313 40.5436C144.224 41.3036 144.262 42.0382 144.44 42.7475C144.617 43.4567 145.136 43.976 145.985 44.28C146.162 44.3687 146.365 44.4193 146.593 44.4193H146.656L146.719 44.4827C147.517 44.5713 148.277 44.5207 148.999 44.3433C149.709 44.166 150.367 43.9127 150.975 43.5707C151.583 43.2414 152.115 42.8615 152.584 42.4308C153.052 42.0002 153.458 41.5949 153.825 41.1896C153.914 41.1009 153.99 41.0123 154.053 40.9236C154.116 40.8349 154.192 40.7463 154.281 40.6576C154.547 40.303 154.699 40.1003 154.75 40.0497C155.243 39.3784 155.687 38.6944 156.092 37.9725C156.497 37.2632 156.801 36.6552 157.029 36.1613C157.067 35.9839 157.181 35.8066 157.359 35.6293C157.675 35.3127 158.068 35.186 158.562 35.224C158.828 35.3127 158.993 35.4267 159.069 35.5533C159.132 35.6926 159.17 35.8446 159.17 36.0219C159.17 36.1993 159.119 36.4019 159.031 36.6299C158.803 37.0732 158.549 37.6052 158.258 38.2005C157.967 38.8084 157.599 39.467 157.156 40.1763C156.979 40.6196 156.548 41.3162 155.889 42.2535C155.801 42.3928 155.699 42.5321 155.585 42.6841C155.471 42.8361 155.332 43.0261 155.155 43.2541C154.268 44.28 153.154 45.2933 151.849 46.2939C150.532 47.2945 148.987 47.8391 147.201 47.9277C146.669 48.0164 146.061 48.0164 145.39 47.9277C143.743 47.7504 142.451 47.3705 141.539 46.7878C140.627 46.2052 139.943 45.4959 139.5 44.6473C139.095 43.8874 138.867 43.0641 138.791 42.1775C138.727 41.2909 138.753 40.3916 138.892 39.505V39.4417C139.133 38.1371 139.551 36.6426 140.184 34.996ZM145.795 36.0726C145.617 36.4272 145.466 36.7439 145.364 37.0099C145.25 37.2759 145.149 37.5418 145.06 37.8078C146.263 37.6305 147.289 37.2505 148.138 36.6679C148.987 36.0853 149.696 35.4393 150.278 34.73C150.861 34.0208 151.292 33.3115 151.583 32.6275C151.874 31.9309 152.039 31.3736 152.09 30.9176C152.178 30.1197 152.102 29.6384 151.862 29.4738C151.621 29.3218 151.444 29.2458 151.355 29.2458C151.127 29.2458 150.836 29.3218 150.481 29.4738C150.127 29.6257 149.709 29.9424 149.24 30.411C148.771 30.8796 148.252 31.5636 147.669 32.4502C147.087 33.3495 146.466 34.5527 145.795 36.0726Z" fill="black"/>
<path d="M59.3393 43.938C57.7054 44.9639 56.0208 45.5972 54.2729 45.8378C52.3478 46.1165 50.7392 45.9645 49.46 45.3819C48.1807 44.7992 47.2055 43.862 46.5342 42.5954C45.8629 41.3288 45.4829 39.7709 45.3943 37.9217C45.3056 36.0852 45.4956 34.046 45.9515 31.8168C46.4202 29.5877 47.1295 27.2192 48.1174 24.7114C49.0927 22.2035 50.3086 19.6577 51.7651 17.0866C53.0064 14.8574 54.2856 12.7422 55.6282 10.741C56.9708 8.72718 58.364 6.96664 59.7952 5.44675C61.2264 3.92686 62.721 2.68561 64.2409 1.72302C65.7735 0.76042 67.3693 0.215793 69.0539 0.0764696C69.6998 0.0131408 70.3838 0.16513 71.1057 0.532437C71.8277 0.899744 72.4736 1.43171 73.0689 2.12832C73.6642 2.8376 74.1329 3.71154 74.5002 4.75013C74.8675 5.80139 75.0195 6.99197 74.9561 8.32187C74.9055 9.52512 74.6268 10.855 74.1202 12.2863C73.6136 13.7301 73.0056 15.136 72.2963 16.5419C71.587 17.9352 70.8524 19.2271 70.0671 20.405C69.2819 21.5829 68.5852 22.5075 67.9646 23.2041C67.6733 23.5081 67.2933 23.7361 66.7994 23.8754C66.3054 24.0147 65.7735 24.1161 65.2035 24.1667C64.6335 24.2174 64.0509 24.2047 63.481 24.1541C62.8983 24.0907 62.4044 23.9894 61.9864 23.8501C61.5684 23.7108 61.2518 23.5461 61.0618 23.3435C60.8718 23.1408 60.8591 22.9382 61.0365 22.7102C61.5304 22.3302 62.0751 21.7476 62.683 20.975C63.291 20.1897 63.9116 19.3157 64.5575 18.3405C65.2035 17.3652 65.8494 16.3393 66.4954 15.2754C67.1414 14.2114 67.724 13.1982 68.2686 12.2356C68.8006 11.2857 69.2692 10.4371 69.6365 9.70244C70.0038 8.96783 70.2698 8.44853 70.3965 8.13189C70.8651 6.96664 70.9537 6.11803 70.6498 5.57341C70.3585 5.02878 69.7252 5.05411 68.7752 5.6494C67.116 6.70066 65.4568 8.32187 63.7723 10.5384C62.0877 12.7549 60.3652 15.3767 58.592 18.3911C57.9713 19.3917 57.2494 20.747 56.4261 22.4442C55.6029 24.1541 54.8049 25.9779 54.0196 27.9158C53.2344 29.8663 52.5504 31.8295 51.9678 33.7927C49.7259 42.2408 53.5637 42.3927 55.6408 41.5948C55.7042 41.5695 57.1481 40.9868 57.1987 40.9615C63.6583 37.9851 60.9605 42.9247 59.3393 43.938Z" fill="black"/>
<path d="M63.6067 32.7914C62.6821 33.0194 62.1502 32.9687 61.6182 32.6521C61.0862 32.3481 61.0229 32.2848 60.6429 31.8162C60.263 31.3475 60.149 31.0435 59.997 30.5496C59.8703 30.1063 59.8703 29.815 59.9843 29.6123C60.111 29.397 60.301 29.3337 60.3516 29.3083C60.9596 29.0044 64.7086 28.1937 65.9499 27.8011C68.6477 27.0665 70.0663 26.5345 71.3708 26.0786C72.3714 25.7113 73.6253 25.2553 74.3599 24.9513C74.5879 24.8373 74.8412 24.926 75.1072 25.1793C75.3732 25.4453 75.4239 25.9266 75.2465 26.6105C74.7399 28.5611 74.1446 30.6129 73.4353 32.7534C72.7261 34.8939 72.1434 36.9458 71.6621 38.9343C71.1808 40.9228 70.9149 42.7467 70.8769 44.4059C70.8389 46.0651 71.2315 47.395 72.0548 48.4083C71.8015 49.0289 71.3708 49.4215 70.7755 49.5735C70.1802 49.7382 69.547 49.7002 68.8883 49.4469C68.2297 49.1936 67.6091 48.7629 67.0518 48.1296C66.4818 47.4964 66.0892 46.6857 65.8739 45.6852C65.7599 44.1019 65.9119 42.658 66.3299 41.3661C66.7605 40.0742 67.3178 38.795 68.0144 37.5411C68.711 36.2872 69.471 34.9953 70.2689 33.678C71.0668 32.3608 71.7761 30.8536 72.3841 29.1563L71.7001 30.4736C70.7882 32.0695 69.7243 33.7034 68.521 35.3626C67.3178 37.0218 66.0005 38.5797 64.5567 40.0109C63.1128 41.4421 61.5802 42.6707 59.959 43.6966C58.3251 44.7226 56.6406 45.3558 54.8927 45.5965C52.9675 45.8751 53.0435 43.1267 54.2467 41.9994C57.6538 41.1761 61.2382 38.339 61.8968 37.7057C65.7092 34.0707 66.2539 32.8294 67.2671 31.6008C66.3552 32.1835 63.6067 32.7914 63.6067 32.7914Z" fill="url(#paint0_linear_5095_2892)"/>
<defs>
<linearGradient id="paint0_linear_5095_2892" x1="56.1715" y1="41.4174" x2="75.8755" y2="36.1392" gradientUnits="userSpaceOnUse">
<stop/>
<stop offset="1" stop-color="#E5B80B"/>
</linearGradient>
</defs>
</svg>
