<svg width="66" height="72" viewBox="0 0 66 72" fill="none" xmlns="http://www.w3.org/2000/svg">
<g opacity="0.3">
<path d="M32.0938 71.3338C47.3389 71.3338 59.6974 70.5648 59.6974 69.6161C59.6974 68.6675 47.3389 67.8984 32.0938 67.8984C16.8488 67.8984 4.49023 68.6675 4.49023 69.6161C4.49023 70.5648 16.8488 71.3338 32.0938 71.3338Z" fill="#2C704E"/>
</g>
<path d="M33.6949 53.5509L45.7803 56.1689C46.5448 56.3345 47.3352 56.3351 48.1 56.1706C48.8648 56.0061 49.5869 55.6802 50.2194 55.2141C50.8519 54.748 51.3806 54.1521 51.7712 53.4652C52.1618 52.7783 52.4055 52.0157 52.4864 51.227L53.7667 38.76C53.8479 37.9685 54.0931 37.2034 54.4863 36.5147L60.6749 25.6653C61.0664 24.979 61.3111 24.2168 61.3932 23.4283C61.4753 22.6398 61.3929 21.8426 61.1513 21.0885C60.9098 20.3344 60.5145 19.6402 59.9912 19.0512C59.4679 18.4622 58.8282 17.9914 58.1138 17.6696L46.8195 12.5816C46.1024 12.2589 45.4607 11.7862 44.9363 11.1944L36.6759 1.87402C36.1534 1.28424 35.5143 0.812589 34.8002 0.489722C34.0862 0.166856 33.3131 0 32.5313 0C31.7495 0 30.9765 0.166856 30.2625 0.489722C29.5484 0.812589 28.9093 1.28424 28.3867 1.87402L20.1263 11.1944C19.602 11.7862 18.9602 12.2589 18.2432 12.5816L6.94886 17.6696C6.23444 17.9914 5.59479 18.4622 5.07147 19.0512C4.54816 19.6402 4.15288 20.3344 3.91134 21.0885C3.6698 21.8426 3.58739 22.6398 3.66948 23.4283C3.75156 24.2168 3.9963 24.979 4.38779 25.6653L10.5764 36.5147C10.9695 37.2034 11.2147 37.9685 11.296 38.76L12.5762 51.227C12.6572 52.0157 12.9009 52.7783 13.2915 53.4652C13.6821 54.1521 14.2108 54.748 14.8433 55.2141C15.4758 55.6802 16.1979 56.0061 16.9627 56.1706C17.7275 56.3351 18.5178 56.3345 19.2824 56.1689L31.3677 53.5509C32.1349 53.3852 32.9278 53.3852 33.6949 53.5509Z" fill="#FED110"/>
<path d="M45.8028 11.9842L32.5312 30.5228V0.00198224C33.3133 -0.000575309 34.087 0.165408 34.8011 0.488941C35.5151 0.812474 36.1533 1.28618 36.6733 1.87868L44.9393 11.1928C45.1952 11.4903 45.4851 11.756 45.8028 11.9842Z" fill="#FF9F00"/>
<path d="M11.0469 37.5961L32.5305 30.5215L14.8471 55.2115C14.2117 54.7481 13.6804 54.1534 13.2882 53.4665C12.896 52.7796 12.6519 52.0162 12.5718 51.2267L11.2997 38.7644C11.2584 38.3666 11.1736 37.9748 11.0469 37.5961Z" fill="#FF9F00"/>
<path d="M32.5323 30.5211L3.91797 21.0823C4.15727 20.3296 4.55071 19.6366 5.0725 19.0489C5.59428 18.4612 6.23264 17.9919 6.94572 17.6719L18.2483 12.5856C18.6039 12.4176 18.9429 12.2156 19.2608 11.9824L32.5323 30.5211Z" fill="#FF9F00"/>
<path d="M50.2146 55.2115C49.5855 55.681 48.8651 56.0095 48.1013 56.1751C47.3375 56.3408 46.5477 56.3398 45.7843 56.1723L33.6923 53.5538C33.3108 53.4704 32.9215 53.4291 32.5312 53.4307V30.5215L50.2146 55.2115Z" fill="#FF9F00"/>
<path d="M60.6722 25.6605L54.4867 36.5125C54.2911 36.8554 54.1322 37.2186 54.0128 37.5958L32.5312 30.5212L61.1456 21.0918C61.3897 21.844 61.4737 22.6401 61.3921 23.4277C61.3105 24.2152 61.0652 24.9762 60.6722 25.6605Z" fill="#FF9F00"/>
<path d="M34.3281 63.0749V58.3832C34.3281 57.3755 33.5227 56.5586 32.5293 56.5586C31.5358 56.5586 30.7304 57.3755 30.7304 58.3832V63.0749C30.7304 64.0826 31.5358 64.8995 32.5293 64.8995C33.5227 64.8995 34.3281 64.0826 34.3281 63.0749Z" fill="#FED110"/>
<path d="M63.2953 38.8631L58.8963 37.4134C57.9515 37.102 56.9367 37.6265 56.6297 38.5848C56.3227 39.5431 56.8398 40.5724 57.7846 40.8837L62.1836 42.3335C63.1284 42.6448 64.1432 42.1204 64.4501 41.1621C64.7571 40.2038 64.2401 39.1745 63.2953 38.8631Z" fill="#FED110"/>
<path d="M2.82191 42.3397L7.22092 40.89C8.16572 40.5786 8.68278 39.5493 8.37579 38.591C8.0688 37.6327 7.05402 37.1083 6.10922 37.4196L1.71021 38.8694C0.765408 39.1808 0.248353 40.21 0.555341 41.1683C0.862328 42.1266 1.87711 42.6511 2.82191 42.3397Z" fill="#FED110"/>
<path d="M49.9515 3.11503L47.2316 6.91064C46.6474 7.72586 46.8254 8.86705 47.6291 9.45956C48.4328 10.0521 49.558 9.87155 50.1421 9.05633L52.862 5.26072C53.4462 4.4455 53.2682 3.30431 52.4645 2.7118C51.6607 2.11928 50.5356 2.29981 49.9515 3.11503Z" fill="#FED110"/>
<path d="M12.2068 5.25761L14.9266 9.05322C15.5108 9.86844 16.6359 10.049 17.4397 9.45645C18.2434 8.86394 18.4214 7.72275 17.8372 6.90753L15.1173 3.11192C14.5332 2.2967 13.408 2.11617 12.6043 2.70869C11.8006 3.3012 11.6226 4.44239 12.2068 5.25761Z" fill="#FED110"/>
</svg>
